<svg xmlns="http://www.w3.org/2000/svg" xmlns:xlink="http://www.w3.org/1999/xlink" width="34" zoomAndPan="magnify" viewBox="0 0 25.5 26.249999" height="35" preserveAspectRatio="xMidYMid meet" version="1.0"><defs><clipPath id="488e8fab75"><path d="M 0.109375 0 L 24.171875 0 L 24.171875 24.792969 L 0.109375 24.792969 Z M 0.109375 0 " clip-rule="nonzero"/></clipPath><clipPath id="09998b1803"><path d="M 5.195312 4.75 L 19.050781 4.75 L 19.050781 20.0625 L 5.195312 20.0625 Z M 5.195312 4.75 " clip-rule="nonzero"/></clipPath></defs><g clip-path="url(#488e8fab75)"><path fill="#ffffff" d="M 2.253906 3.460938 C 3.523438 1.804688 5.234375 1.019531 6.335938 0.628906 C 10.503906 0.015625 14.667969 0.0585938 18.820312 0.761719 C 21.429688 1.226562 22.082031 1.636719 22.550781 2.027344 C 24.414062 3.648438 23.777344 5.808594 24.058594 15.242188 C 24.171875 18.335938 24.265625 19.414062 23.519531 20.777344 C 22.066406 23.382812 19.027344 24.277344 17.574219 24.597656 C 15.304688 24.789062 13.03125 24.859375 10.753906 24.800781 C 7.324219 24.726562 5.980469 24.410156 4.789062 23.925781 C 3.597656 23.441406 2.757812 23.105469 1.898438 22.230469 C 1.042969 21.351562 0.109375 19.957031 0.613281 11.34375 C 0.949219 5.679688 1.488281 4.449219 2.253906 3.460938 Z M 2.253906 3.460938 " fill-opacity="1" fill-rule="nonzero"/></g><g clip-path="url(#09998b1803)"><path fill="#084bc1" d="M 15.90625 16.746094 C 15.398438 17.429688 14.859375 17.882812 14.695312 17.765625 C 14.535156 17.644531 14.816406 16.996094 15.324219 16.3125 C 15.832031 15.632812 16.371094 15.175781 16.535156 15.296875 C 16.695312 15.414062 16.414062 16.066406 15.90625 16.746094 Z M 17.238281 10.894531 C 17.222656 10.753906 17.210938 10.613281 17.195312 10.480469 C 17.148438 10.097656 17.070312 9.886719 16.957031 9.835938 C 16.910156 9.820312 16.863281 9.824219 16.824219 9.855469 C 16.746094 9.914062 16.703125 10.070312 16.71875 10.222656 C 16.75 10.445312 16.765625 10.671875 16.777344 10.894531 L 16.269531 10.894531 C 16.273438 10.734375 16.273438 10.570312 16.273438 10.414062 C 16.285156 9.039062 16.269531 8.472656 16.078125 8.40625 C 16.035156 8.390625 15.988281 8.398438 15.953125 8.425781 C 15.789062 8.542969 15.773438 9.101562 15.757812 10.007812 C 15.753906 10.3125 15.75 10.617188 15.738281 10.894531 L 15.5 10.894531 C 15.464844 10.59375 15.429688 10.3125 15.382812 10.1875 C 15.363281 10.136719 15.324219 10.023438 15.234375 10.03125 C 15.113281 10.039062 15.070312 10.230469 14.96875 10.769531 C 14.960938 10.8125 14.953125 10.851562 14.945312 10.894531 L 14.648438 10.894531 C 14.632812 9.988281 14.535156 9.503906 14.351562 9.410156 C 14.296875 9.382812 14.246094 9.394531 14.214844 9.414062 C 14.007812 9.511719 14 9.925781 13.992188 10.5 C 13.992188 10.628906 13.988281 10.761719 13.984375 10.894531 L 13.753906 10.894531 C 13.746094 10.726562 13.714844 10.550781 13.621094 10.460938 C 13.550781 10.390625 13.484375 10.390625 13.441406 10.402344 C 13.304688 10.4375 13.230469 10.644531 13.167969 10.835938 C 13.160156 10.859375 13.15625 10.878906 13.148438 10.890625 C 13.148438 10.894531 13.148438 10.894531 13.148438 10.894531 L 12.8125 10.894531 C 12.796875 10.839844 12.777344 10.785156 12.753906 10.734375 C 12.703125 10.621094 12.585938 10.5625 12.449219 10.585938 C 12.273438 10.617188 12.199219 10.746094 12.167969 10.894531 L 11.769531 10.894531 C 11.757812 10.761719 11.753906 10.621094 11.753906 10.492188 C 11.761719 10.125 11.703125 9.90625 11.582031 9.84375 C 11.527344 9.816406 11.46875 9.820312 11.414062 9.855469 C 11.320312 9.921875 11.261719 10.074219 11.28125 10.222656 C 11.308594 10.445312 11.328125 10.671875 11.335938 10.894531 L 10.832031 10.894531 C 10.832031 10.734375 10.832031 10.570312 10.835938 10.414062 C 10.847656 9.039062 10.832031 8.472656 10.636719 8.40625 C 10.59375 8.390625 10.550781 8.398438 10.511719 8.425781 C 10.347656 8.542969 10.332031 9.101562 10.320312 10.007812 C 10.316406 10.3125 10.3125 10.617188 10.296875 10.894531 L 10.0625 10.894531 C 10.023438 10.59375 9.988281 10.3125 9.941406 10.1875 C 9.925781 10.136719 9.882812 10.023438 9.792969 10.03125 C 9.675781 10.039062 9.628906 10.230469 9.53125 10.769531 C 9.523438 10.8125 9.515625 10.851562 9.507812 10.894531 L 9.207031 10.894531 C 9.195312 9.988281 9.097656 9.503906 8.914062 9.410156 C 8.859375 9.382812 8.808594 9.394531 8.777344 9.414062 C 8.570312 9.511719 8.5625 9.925781 8.554688 10.5 C 8.550781 10.628906 8.550781 10.761719 8.542969 10.894531 L 8.316406 10.894531 C 8.308594 10.726562 8.277344 10.550781 8.179688 10.460938 C 8.109375 10.390625 8.046875 10.390625 8.003906 10.402344 C 7.867188 10.4375 7.789062 10.644531 7.730469 10.835938 C 7.722656 10.859375 7.714844 10.878906 7.710938 10.890625 C 7.710938 10.894531 7.710938 10.894531 7.710938 10.894531 L 7.375 10.894531 C 7.355469 10.839844 7.335938 10.785156 7.3125 10.734375 C 7.265625 10.621094 7.144531 10.5625 7.007812 10.585938 C 6.839844 10.617188 6.757812 10.746094 6.707031 10.894531 L 6.511719 10.894531 C 6.703125 9.816406 7.167969 8.496094 8.265625 7.460938 L 8.15625 7.359375 C 8.644531 6.875 9.199219 6.472656 9.808594 6.179688 L 9.832031 6.230469 C 10.398438 5.910156 10.984375 5.738281 11.546875 5.65625 C 11.777344 5.628906 12.011719 5.613281 12.25 5.613281 C 12.488281 5.613281 12.726562 5.628906 12.957031 5.65625 C 13.519531 5.738281 14.105469 5.910156 14.671875 6.230469 L 14.695312 6.179688 C 15.308594 6.476562 15.871094 6.882812 16.363281 7.375 L 16.269531 7.460938 C 17.363281 8.496094 17.832031 9.816406 18.023438 10.894531 Z M 16.910156 10.894531 C 16.902344 10.664062 16.882812 10.429688 16.855469 10.203125 C 16.839844 10.074219 16.882812 9.972656 16.902344 9.960938 C 16.902344 9.960938 17 10.007812 17.058594 10.496094 C 17.074219 10.625 17.085938 10.757812 17.101562 10.894531 Z M 16.53125 12.855469 C 16.519531 12.871094 16.503906 12.878906 16.496094 12.878906 C 16.488281 12.878906 16.476562 12.878906 16.460938 12.863281 C 16.296875 12.699219 16.269531 11.867188 16.269531 11.03125 L 16.78125 11.03125 C 16.804688 11.90625 16.691406 12.675781 16.53125 12.855469 Z M 16.136719 10.414062 C 16.136719 10.582031 16.136719 10.742188 16.136719 10.894531 L 15.875 10.894531 C 15.886719 10.617188 15.890625 10.3125 15.894531 10.011719 C 15.902344 9.441406 15.914062 8.582031 16.03125 8.535156 C 16.152344 8.617188 16.144531 9.65625 16.136719 10.414062 Z M 15.640625 11.664062 C 15.632812 11.683594 15.628906 11.699219 15.625 11.710938 C 15.585938 11.578125 15.546875 11.273438 15.515625 11.03125 L 15.730469 11.03125 C 15.714844 11.289062 15.6875 11.511719 15.640625 11.664062 Z M 15.082031 10.894531 C 15.089844 10.863281 15.09375 10.828125 15.101562 10.792969 C 15.140625 10.59375 15.191406 10.300781 15.238281 10.195312 C 15.246094 10.203125 15.25 10.21875 15.253906 10.230469 C 15.296875 10.34375 15.328125 10.617188 15.363281 10.894531 Z M 14.820312 11.386719 C 14.769531 11.480469 14.742188 11.496094 14.742188 11.5 C 14.707031 11.476562 14.660156 11.304688 14.648438 11.140625 C 14.648438 11.101562 14.648438 11.066406 14.648438 11.03125 L 14.917969 11.03125 C 14.886719 11.1875 14.851562 11.324219 14.820312 11.386719 Z M 14.121094 10.894531 C 14.125 10.761719 14.125 10.628906 14.128906 10.503906 C 14.136719 10.054688 14.140625 9.59375 14.273438 9.535156 L 14.285156 9.535156 L 14.289062 9.53125 C 14.324219 9.550781 14.492188 9.695312 14.511719 10.894531 Z M 13.933594 11.535156 C 13.902344 11.78125 13.867188 11.882812 13.84375 11.925781 C 13.804688 11.84375 13.753906 11.597656 13.753906 11.246094 C 13.753906 11.21875 13.753906 11.1875 13.753906 11.15625 C 13.757812 11.117188 13.757812 11.074219 13.757812 11.03125 L 13.976562 11.03125 C 13.96875 11.199219 13.957031 11.371094 13.933594 11.535156 Z M 13.292969 10.894531 C 13.292969 10.890625 13.296875 10.882812 13.296875 10.878906 C 13.324219 10.796875 13.402344 10.550781 13.476562 10.53125 C 13.492188 10.527344 13.511719 10.542969 13.527344 10.558594 C 13.589844 10.617188 13.609375 10.757812 13.617188 10.894531 Z M 12.96875 11.25 C 12.960938 11.242188 12.929688 11.21875 12.894531 11.125 C 12.878906 11.09375 12.871094 11.0625 12.859375 11.03125 L 13.101562 11.03125 C 13.070312 11.121094 13.019531 11.234375 12.96875 11.25 Z M 12.308594 10.894531 C 12.335938 10.800781 12.378906 10.738281 12.472656 10.722656 C 12.546875 10.707031 12.605469 10.730469 12.628906 10.785156 C 12.644531 10.820312 12.65625 10.859375 12.671875 10.894531 Z M 12.132812 11.128906 C 12.128906 11.167969 12.128906 11.207031 12.121094 11.246094 C 12.121094 11.25 12.09375 11.601562 12.078125 11.707031 C 12.046875 11.898438 12.015625 11.96875 12 11.996094 C 11.925781 11.910156 11.828125 11.496094 11.78125 11.03125 L 12.144531 11.03125 C 12.140625 11.0625 12.136719 11.097656 12.132812 11.128906 Z M 11.472656 10.894531 C 11.464844 10.664062 11.445312 10.429688 11.417969 10.203125 C 11.402344 10.097656 11.445312 10 11.492188 9.96875 C 11.507812 9.957031 11.515625 9.960938 11.519531 9.960938 C 11.558594 9.984375 11.625 10.117188 11.621094 10.488281 C 11.617188 10.597656 11.625 10.738281 11.636719 10.894531 Z M 11.09375 12.855469 C 11.078125 12.871094 11.066406 12.878906 11.054688 12.878906 C 11.050781 12.878906 11.039062 12.878906 11.019531 12.863281 C 10.859375 12.699219 10.832031 11.867188 10.832031 11.03125 L 11.339844 11.03125 C 11.363281 11.90625 11.25 12.675781 11.09375 12.855469 Z M 10.699219 10.414062 C 10.699219 10.582031 10.695312 10.742188 10.695312 10.894531 L 10.433594 10.894531 C 10.449219 10.617188 10.453125 10.3125 10.457031 10.011719 C 10.464844 9.441406 10.476562 8.582031 10.59375 8.535156 C 10.714844 8.617188 10.707031 9.65625 10.699219 10.414062 Z M 10.199219 11.664062 C 10.195312 11.683594 10.191406 11.699219 10.183594 11.710938 C 10.144531 11.578125 10.105469 11.273438 10.078125 11.03125 L 10.289062 11.03125 C 10.273438 11.289062 10.246094 11.511719 10.199219 11.664062 Z M 9.644531 10.894531 C 9.648438 10.863281 9.65625 10.828125 9.664062 10.792969 C 9.699219 10.59375 9.753906 10.300781 9.800781 10.195312 C 9.804688 10.203125 9.808594 10.21875 9.816406 10.230469 C 9.855469 10.34375 9.890625 10.617188 9.925781 10.894531 Z M 9.382812 11.386719 C 9.332031 11.480469 9.304688 11.496094 9.304688 11.5 C 9.265625 11.476562 9.222656 11.304688 9.210938 11.140625 C 9.210938 11.101562 9.210938 11.066406 9.210938 11.03125 L 9.480469 11.03125 C 9.449219 11.1875 9.414062 11.324219 9.382812 11.386719 Z M 8.679688 10.894531 C 8.683594 10.761719 8.6875 10.628906 8.6875 10.503906 C 8.695312 10.054688 8.703125 9.59375 8.835938 9.535156 L 8.84375 9.535156 L 8.851562 9.53125 C 8.886719 9.550781 9.050781 9.695312 9.074219 10.894531 Z M 8.496094 11.535156 C 8.460938 11.78125 8.425781 11.882812 8.40625 11.925781 C 8.367188 11.84375 8.316406 11.597656 8.316406 11.246094 C 8.316406 11.21875 8.316406 11.1875 8.316406 11.15625 C 8.316406 11.117188 8.316406 11.074219 8.320312 11.03125 L 8.539062 11.03125 C 8.53125 11.199219 8.519531 11.371094 8.496094 11.535156 Z M 7.851562 10.894531 C 7.855469 10.890625 7.855469 10.882812 7.859375 10.878906 C 7.882812 10.796875 7.960938 10.550781 8.039062 10.53125 C 8.050781 10.527344 8.074219 10.542969 8.085938 10.558594 C 8.148438 10.617188 8.171875 10.757812 8.179688 10.894531 Z M 7.53125 11.25 C 7.519531 11.242188 7.492188 11.21875 7.453125 11.125 C 7.441406 11.09375 7.429688 11.0625 7.421875 11.03125 L 7.664062 11.03125 C 7.628906 11.121094 7.582031 11.234375 7.53125 11.25 Z M 6.851562 10.894531 C 6.886719 10.800781 6.941406 10.738281 7.03125 10.722656 C 7.105469 10.707031 7.164062 10.730469 7.1875 10.785156 C 7.203125 10.820312 7.21875 10.859375 7.230469 10.894531 Z M 7.945312 15.296875 C 8.105469 15.175781 8.648438 15.632812 9.15625 16.3125 C 9.664062 16.996094 9.941406 17.644531 9.78125 17.765625 C 9.621094 17.882812 9.078125 17.429688 8.574219 16.746094 C 8.066406 16.066406 7.785156 15.414062 7.945312 15.296875 Z M 18.609375 15.085938 C 18.804688 14.464844 18.929688 13.808594 18.976562 13.125 L 19.152344 13.175781 C 19.308594 9.300781 17.550781 7.445312 17.550781 7.445312 C 17.164062 7.003906 16.9375 6.960938 16.828125 6.984375 C 16.269531 6.402344 15.621094 5.925781 14.914062 5.582031 C 14.875 5.480469 14.742188 5.324219 14.351562 5.152344 C 14.351562 5.152344 13.648438 4.808594 12.417969 4.757812 L 12.417969 4.75 C 12.359375 4.75 12.304688 4.75 12.25 4.75 C 12.195312 4.75 12.140625 4.75 12.085938 4.75 L 12.085938 4.757812 C 10.851562 4.808594 10.152344 5.152344 10.152344 5.152344 C 9.757812 5.324219 9.628906 5.480469 9.589844 5.582031 C 8.882812 5.925781 8.234375 6.398438 7.675781 6.980469 C 7.558594 6.96875 7.339844 7.039062 6.984375 7.445312 C 6.984375 7.445312 5.226562 9.300781 5.378906 13.175781 L 5.527344 13.132812 C 5.574219 13.8125 5.695312 14.460938 5.890625 15.078125 C 5.375 15.28125 5.292969 15.808594 5.292969 15.808594 C 6.308594 18.460938 8.429688 20.121094 8.429688 20.121094 C 9.210938 19.914062 9.441406 19.429688 9.441406 19.429688 C 9.441406 19.425781 9.441406 19.425781 9.4375 19.425781 C 9.648438 19.4375 9.832031 19.394531 9.972656 19.289062 C 10.574219 18.835938 10.269531 17.417969 9.292969 16.125 C 8.316406 14.835938 7.039062 14.15625 6.4375 14.609375 C 6.414062 14.625 6.390625 14.644531 6.371094 14.667969 C 6.21875 14.125 6.121094 13.554688 6.089844 12.96875 L 6.410156 12.875 C 6.410156 12.875 6.320312 12.085938 6.488281 11.03125 L 6.671875 11.03125 C 6.660156 11.097656 6.652344 11.164062 6.644531 11.222656 L 6.636719 11.269531 L 6.773438 11.285156 L 6.777344 11.238281 C 6.789062 11.164062 6.796875 11.09375 6.8125 11.03125 L 7.277344 11.03125 C 7.292969 11.078125 7.308594 11.125 7.328125 11.171875 C 7.367188 11.277344 7.410156 11.335938 7.464844 11.367188 C 7.503906 11.390625 7.546875 11.394531 7.589844 11.378906 C 7.691406 11.339844 7.753906 11.191406 7.808594 11.03125 L 8.183594 11.03125 C 8.183594 11.074219 8.183594 11.117188 8.179688 11.152344 C 8.179688 11.1875 8.179688 11.21875 8.179688 11.246094 C 8.179688 11.328125 8.183594 12.070312 8.402344 12.085938 C 8.496094 12.09375 8.570312 12.003906 8.628906 11.550781 C 8.652344 11.382812 8.667969 11.203125 8.675781 11.03125 L 9.074219 11.03125 C 9.074219 11.066406 9.074219 11.105469 9.074219 11.144531 C 9.085938 11.3125 9.128906 11.601562 9.273438 11.632812 C 9.378906 11.65625 9.453125 11.539062 9.5 11.453125 C 9.542969 11.371094 9.582031 11.214844 9.617188 11.03125 L 9.941406 11.03125 C 10.023438 11.707031 10.0625 11.882812 10.175781 11.894531 C 10.257812 11.902344 10.300781 11.808594 10.332031 11.703125 C 10.382812 11.539062 10.410156 11.304688 10.425781 11.03125 L 10.695312 11.03125 C 10.695312 12.074219 10.734375 12.765625 10.925781 12.957031 C 11 13.035156 11.113281 13.035156 11.195312 12.945312 C 11.390625 12.71875 11.5 11.910156 11.476562 11.03125 L 11.644531 11.03125 C 11.695312 11.542969 11.808594 12.125 11.992188 12.140625 C 12.097656 12.152344 12.164062 12.03125 12.210938 11.730469 C 12.230469 11.617188 12.257812 11.273438 12.257812 11.261719 C 12.261719 11.222656 12.265625 11.183594 12.269531 11.140625 C 12.273438 11.101562 12.277344 11.066406 12.28125 11.03125 L 12.714844 11.03125 C 12.730469 11.078125 12.746094 11.125 12.765625 11.171875 C 12.808594 11.277344 12.851562 11.335938 12.902344 11.367188 C 12.945312 11.390625 12.988281 11.394531 13.027344 11.378906 C 13.128906 11.339844 13.191406 11.191406 13.246094 11.03125 L 13.621094 11.03125 C 13.621094 11.074219 13.621094 11.117188 13.621094 11.152344 C 13.617188 11.1875 13.617188 11.21875 13.617188 11.246094 C 13.617188 11.328125 13.625 12.070312 13.839844 12.085938 C 13.933594 12.089844 14.007812 12.003906 14.070312 11.550781 C 14.09375 11.382812 14.105469 11.203125 14.113281 11.03125 L 14.511719 11.03125 C 14.511719 11.066406 14.515625 11.105469 14.515625 11.144531 C 14.527344 11.3125 14.570312 11.601562 14.710938 11.632812 C 14.816406 11.65625 14.890625 11.539062 14.941406 11.453125 C 14.984375 11.371094 15.019531 11.214844 15.058594 11.03125 L 15.378906 11.03125 C 15.460938 11.707031 15.5 11.882812 15.613281 11.894531 C 15.695312 11.902344 15.738281 11.808594 15.769531 11.703125 C 15.820312 11.539062 15.847656 11.304688 15.867188 11.03125 L 16.136719 11.03125 C 16.136719 12.074219 16.171875 12.765625 16.363281 12.957031 C 16.402344 12.996094 16.445312 13.015625 16.496094 13.015625 C 16.546875 13.015625 16.59375 12.992188 16.632812 12.945312 C 16.832031 12.71875 16.9375 11.910156 16.917969 11.03125 L 17.113281 11.03125 C 17.1875 11.8125 17.234375 12.109375 17.382812 12.128906 C 17.476562 12.136719 17.554688 12.027344 17.648438 11.738281 L 17.519531 11.699219 C 17.457031 11.882812 17.417969 11.953125 17.394531 11.980469 C 17.332031 11.875 17.285156 11.402344 17.25 11.03125 L 18.046875 11.03125 C 18.214844 12.085938 18.125 12.875 18.125 12.875 L 18.410156 12.957031 C 18.382812 13.558594 18.285156 14.136719 18.125 14.683594 C 18.101562 14.65625 18.070312 14.632812 18.042969 14.609375 C 17.441406 14.15625 16.164062 14.835938 15.1875 16.125 C 14.210938 17.417969 13.90625 18.835938 14.503906 19.289062 C 14.648438 19.394531 14.832031 19.4375 15.039062 19.425781 C 15.039062 19.425781 15.039062 19.425781 15.035156 19.429688 C 15.035156 19.429688 15.265625 19.914062 16.050781 20.121094 C 16.050781 20.121094 18.171875 18.460938 19.1875 15.808594 C 19.1875 15.808594 19.105469 15.296875 18.609375 15.085938 " fill-opacity="1" fill-rule="nonzero"/></g></svg>