<svg xmlns="http://www.w3.org/2000/svg" xmlns:xlink="http://www.w3.org/1999/xlink" width="34" zoomAndPan="magnify" viewBox="0 0 25.5 26.249999" height="35" preserveAspectRatio="xMidYMid meet" version="1.0"><defs><clipPath id="9d72b8dfc2"><path d="M 0.109375 0 L 24.351562 0 L 24.351562 24.863281 L 0.109375 24.863281 Z M 0.109375 0 " clip-rule="nonzero"/></clipPath><clipPath id="2dbe9b1fc7"><path d="M 7 6 L 19 6 L 19 20 L 7 20 Z M 7 6 " clip-rule="nonzero"/></clipPath><clipPath id="058feed7f4"><path d="M 9.566406 5.742188 L 20.085938 11.109375 L 14.71875 21.628906 L 4.199219 16.261719 Z M 9.566406 5.742188 " clip-rule="nonzero"/></clipPath><clipPath id="b23c49293c"><path d="M 9.566406 5.742188 L 20.085938 11.109375 L 14.71875 21.628906 L 4.199219 16.261719 Z M 9.566406 5.742188 " clip-rule="nonzero"/></clipPath></defs><g clip-path="url(#9d72b8dfc2)"><path fill="#ffffff" d="M 2.253906 3.457031 C 3.523438 1.800781 5.238281 1.015625 6.339844 0.625 C 10.507812 0.0117188 14.671875 0.0546875 18.828125 0.753906 C 21.441406 1.222656 22.09375 1.632812 22.558594 2.023438 C 24.421875 3.644531 23.789062 5.808594 24.070312 15.242188 C 24.179688 18.335938 24.273438 19.417969 23.527344 20.78125 C 22.074219 23.390625 19.035156 24.285156 17.582031 24.601562 C 15.308594 24.796875 13.035156 24.863281 10.757812 24.804688 C 7.328125 24.730469 5.984375 24.414062 4.789062 23.929688 C 3.597656 23.445312 2.757812 23.109375 1.902344 22.234375 C 1.042969 21.355469 0.109375 19.960938 0.613281 11.34375 C 0.949219 5.675781 1.492188 4.445312 2.253906 3.457031 Z M 2.253906 3.457031 " fill-opacity="1" fill-rule="nonzero"/></g><g clip-path="url(#2dbe9b1fc7)"><g clip-path="url(#058feed7f4)"><g clip-path="url(#b23c49293c)"><path fill="#084bc1" d="M 18.777344 13.539062 C 18.859375 13.3125 18.890625 13.0625 18.882812 12.824219 C 18.871094 12.351562 18.683594 11.894531 18.425781 11.507812 C 18.175781 11.125 17.851562 10.789062 17.511719 10.484375 C 17.082031 10.101562 16.613281 9.761719 16.144531 9.429688 C 15.046875 8.660156 13.878906 8 12.695312 7.367188 C 12.222656 7.113281 11.746094 6.855469 11.21875 6.71875 C 10.964844 6.652344 10.691406 6.621094 10.429688 6.636719 C 10.117188 6.65625 9.824219 6.746094 9.546875 6.890625 C 9.28125 7.023438 9.039062 7.21875 8.835938 7.433594 C 8.636719 7.640625 8.472656 7.886719 8.34375 8.144531 C 8.078125 8.6875 7.976562 9.277344 7.929688 9.875 C 7.886719 10.417969 7.90625 10.964844 7.929688 11.507812 C 7.957031 12.066406 7.980469 12.628906 8.003906 13.1875 C 7.957031 13.695312 7.925781 14.203125 7.929688 14.710938 C 7.933594 15.253906 7.984375 15.789062 8.082031 16.320312 C 8.179688 16.84375 8.34375 17.339844 8.566406 17.820312 C 8.695312 18.097656 8.851562 18.34375 9.046875 18.582031 C 9.21875 18.789062 9.425781 18.960938 9.65625 19.105469 C 10.082031 19.367188 10.605469 19.460938 11.097656 19.429688 C 11.59375 19.402344 12.082031 19.261719 12.539062 19.070312 C 13.019531 18.867188 13.472656 18.621094 13.910156 18.335938 C 14.4375 17.996094 14.925781 17.601562 15.410156 17.203125 C 15.933594 16.773438 16.4375 16.324219 16.921875 15.859375 C 17.390625 15.40625 17.882812 14.980469 18.269531 14.449219 C 18.386719 14.292969 18.496094 14.132812 18.59375 13.960938 C 18.671875 13.824219 18.726562 13.683594 18.777344 13.539062 Z M 18.777344 13.539062 " fill-opacity="1" fill-rule="nonzero"/></g></g></g></svg>