<?xml version="1.0" encoding="UTF-8"?>
<svg id="Layer_1" data-name="Layer 1" xmlns="http://www.w3.org/2000/svg" width="250" height="250" viewBox="0 0 250 250">
  <defs>
    <style>
      .cls-1 {
        fill: #ed0017;
      }

      .cls-2 {
        fill: #fff;
      }

      .cls-3 {
        fill: #fbccd1;
      }
    </style>
  </defs>
  <path class="cls-1" d="M201.39,34.72h0c0-3.84-3.11-6.94-6.94-6.94H81.11c-17.95,0-32.5,14.55-32.5,32.5V217.32c0,10.38,8.42,18.8,18.8,18.8h115.19c10.38,0,18.8-8.42,18.8-18.8V88.24c0-10.38-8.42-18.8-18.8-18.8H76.39c-7.67,0-13.89-6.22-13.89-13.89h0c0-7.67,6.22-13.89,13.89-13.89h118.06c3.84,0,6.94-3.11,6.94-6.94Z"/>
  <path class="cls-3" d="M76.17,48.76h119.78c1.67,0,3.03,1.36,3.03,3.03v7.53c0,1.67-1.36,3.03-3.03,3.03H76.17c-3.75,0-6.79-3.04-6.79-6.79h0c0-3.75,3.04-6.79,6.79-6.79Z"/>
  <path class="cls-2" d="M150.8,110.17l-35.95,2.92c-6.23,.51-11.03,5.71-11.03,11.96v41.07c-2.01-.58-4.25-.83-6.62-.64-8.7,.71-15.75,6.91-15.75,13.87s7.05,12.01,15.75,11.31c8.2-.67,14.93-6.22,15.68-12.67h.08v-49.42c0-3.49,2.68-6.39,6.16-6.67l28.41-2.3c3.9-.32,7.24,2.76,7.24,6.67v35.73c-2.01-.58-4.25-.83-6.62-.64-8.7,.71-15.75,6.91-15.75,13.87s7.05,12.01,15.75,11.31c8.2-.67,14.93-6.22,15.68-12.67h.08s-.13-51.75-.13-51.75c-.02-7-5.99-12.49-12.97-11.93Z"/>
</svg>