<?xml version="1.0" encoding="UTF-8"?>
<svg id="Layer_1" data-name="Layer 1" xmlns="http://www.w3.org/2000/svg" width="250" height="250" viewBox="0 0 250 250">
  <defs>
    <style>
      .cls-1 {
        fill: #ed0017;
      }

      .cls-2 {
        fill: #fff;
      }

      .cls-3 {
        fill: #fbccd1;
      }
    </style>
  </defs>
  <path class="cls-1" d="M73.39,86.71H208.3c7.67,0,13.9,6.23,13.9,13.9v89.37c0,10.01-8.13,18.15-18.15,18.15H59.49V100.61c0-7.67,6.23-13.9,13.9-13.9Z"/>
  <path class="cls-3" d="M207.27,208.13H49.51c-15.35,0-21.73-10.02-21.73-21.96h0s156.31,0,156.31,0h0c0,11.69,6.38,21.96,21.73,21.96h1.45Z"/>
  <g>
    <rect class="cls-1" x="59.47" y="61.07" width="162.75" height="21.57" rx="5.57" ry="5.57"/>
    <g>
      <path class="cls-3" d="M90,75.88c0,2.35-2.37,3.93-4.56,3.08-6.2-2.42-10.71-9.62-10.71-18.11,0-10.46,6.85-18.98,15.28-18.98s15.28,8.51,15.28,18.98h-6.87c0-6.56-3.85-12.11-8.41-12.11s-8.41,5.54-8.41,12.11c0,5.47,2.67,10.23,6.2,11.67,1.3,.53,2.21,1.72,2.21,3.12v.24Z"/>
      <path class="cls-3" d="M136.78,75.88c0,2.35-2.37,3.93-4.56,3.08-6.2-2.42-10.71-9.62-10.71-18.11,0-10.46,6.85-18.98,15.28-18.98s15.28,8.51,15.28,18.98h-6.87c0-6.56-3.85-12.11-8.41-12.11s-8.41,5.54-8.41,12.11c0,5.47,2.67,10.23,6.2,11.67,1.3,.53,2.21,1.72,2.21,3.12v.24Z"/>
      <path class="cls-3" d="M183.56,75.88c0,2.35-2.37,3.93-4.56,3.08-6.2-2.42-10.71-9.62-10.71-18.11,0-10.46,6.85-18.98,15.28-18.98s15.28,8.51,15.28,18.98h-6.87c0-6.56-3.85-12.11-8.41-12.11s-8.41,5.54-8.41,12.11c0,5.47,2.67,10.23,6.2,11.67,1.3,.53,2.21,1.72,2.21,3.12v.24Z"/>
    </g>
  </g>
  <g>
    <path class="cls-2" d="M169.51,135.75v14.81c0,2.44-1.36,4.68-3.54,5.79l-24.16,12.42c-1.87,.96-4.08,.96-5.95,0l-24.17-12.42c-2.17-1.12-3.54-3.35-3.54-5.79v-14.82c0-1.4,1.48-2.3,2.72-1.66l27.11,13.93c.54,.28,1.17,.28,1.71,0l27.1-13.92c1.24-.64,2.72,.26,2.72,1.66Z"/>
    <path class="cls-2" d="M181.66,119.4l-41.97-21.56c-.54-.28-1.17-.28-1.71,0l-41.97,21.56c-1.35,.69-1.35,2.63,0,3.32l41.97,21.56c.54,.28,1.17,.28,1.71,0l35.35-18.16,.32,.04v13.83c-.75,.38-1.27,1.16-1.27,2.06v4.24c0,1.28,1.04,2.32,2.32,2.32h1.41c1.28,0,2.32-1.04,2.32-2.32v-4.24c0-.9-.52-1.67-1.27-2.06v-15.84l2.79-1.43c1.35-.69,1.35-2.63,0-3.32Z"/>
  </g>
</svg>