<?xml version="1.0" encoding="UTF-8"?>
<svg id="Layer_1" data-name="Layer 1" xmlns="http://www.w3.org/2000/svg" width="250" height="250" viewBox="0 0 250 250">
  <defs>
    <style>
      .cls-1 {
        font-family: 'Nunito_768.000wght', Nunito;
        font-size: 43.64px;
        font-variation-settings: 'wght' 768;
      }

      .cls-1, .cls-2 {
        fill: #ed0017;
      }

      .cls-3 {
        fill: #fff;
      }

      .cls-4 {
        fill: #fbccd1;
      }
    </style>
  </defs>
  <rect class="cls-4" x="13.89" y="27.63" width="222.22" height="125" rx="9.42" ry="9.42"/>
  <circle class="cls-2" cx="69.99" cy="74.18" r="23.94"/>
  <path class="cls-2" d="M154.63,115.39l-2.67-2.67c-2.12-2.12-5.55-2.12-7.67,0l-16.8,16.8c-1.12,1.12-2.93,1.11-4.04,0l-15.29-18.89c-4.46-5.52-11.18-8.72-18.28-8.72H48.06c-11.23,0-20.34,9.11-20.34,20.34v85.85c0,2.99,2.43,5.42,5.42,5.42h2.36c2.99,0,5.42-2.43,5.42-5.42V126.81c0-.91,.74-1.65,1.65-1.65h0c.91,0,1.65,.74,1.65,1.65v95.56h56.89V126.35l10.62,15.14c2.74,3.9,7.15,6.44,11.92,6.44,3.77,0,7.55-1.44,10.43-4.32l20.55-20.55c2.12-2.12,2.12-5.55,0-7.67Z"/>
  <text class="cls-1" transform="translate(163.12 74.12)"><tspan x="0" y="0">Аа</tspan></text>
  <path class="cls-3" d="M187.37,76.5c.76-.67,1.9-.64,2.62,.08l.14,.14c.72,.72,.75,1.86,.08,2.62l-28.59,32.11c-1.72,1.93-4.72,2.02-6.55,.19h0c-1.83-1.83-1.75-4.83,.19-6.55l32.11-28.59Z"/>
</svg>