<?xml version="1.0" encoding="UTF-8"?>
<svg id="Layer_1" data-name="Layer 1" xmlns="http://www.w3.org/2000/svg" width="250" height="250" viewBox="0 0 250 250">
  <defs>
    <style>
      .cls-1 {
        fill: #ed0017;
      }

      .cls-2 {
        fill: #fff;
      }

      .cls-3 {
        fill: #fbccd1;
      }
    </style>
  </defs>
  <path class="cls-1" d="M144.06,96.96h11.41c12.25,0,22.18,9.93,22.18,22.18v4.15s7.78-10.82,7.78-10.82c1.38-1.93,4.07-2.36,5.99-.98l7.95,5.72c1.93,1.38,2.36,4.07,.98,5.99l-19.07,26.51c-2.28,3.17-5.95,5.06-9.87,5.06h0c-6.71,0-12.15-5.44-12.15-12.15v-22.98c0-2.37-1.92-4.29-4.29-4.29h-10.91c-2.37,0-4.29-1.92-4.29-4.29v-9.79c0-2.37,1.92-4.29,4.29-4.29Z"/>
  <circle class="cls-1" cx="123.84" cy="59.46" r="31.68"/>
  <path class="cls-3" d="M37.58,50.92c-.08-1.34,.9-2.5,2.23-2.66l.27-.03c1.33-.16,2.55,.75,2.78,2.07l9.87,56.04c.59,3.38-1.77,6.56-5.18,6.96h0c-3.41,.4-6.44-2.15-6.64-5.57l-3.32-56.81Z"/>
  <path class="cls-1" d="M97.34,96.96h53c5.66,0,10.26,4.6,10.26,10.26v114.65H87.08V107.22c0-5.66,4.6-10.26,10.26-10.26Z"/>
  <path class="cls-1" d="M100.34,96.96h-11.41c-12.25,0-22.18,9.93-22.18,22.18v4.15l-7.78-10.82c-1.38-1.93-4.07-2.36-5.99-.98l-7.95,5.72c-1.93,1.38-2.36,4.07-.98,5.99l19.07,26.51c2.28,3.17,5.95,5.06,9.87,5.06h0c6.71,0,12.15-5.44,12.15-12.15v-22.98c0-2.37,1.92-4.29,4.29-4.29h10.91c2.37,0,4.29-1.92,4.29-4.29v-9.79c0-2.37-1.92-4.29-4.29-4.29Z"/>
  <path class="cls-3" d="M202.45,83.82c-9-.03-16.03,2.28-20.07,3.96-4.04-1.67-11.07-3.99-20.07-3.96-6.99,.02-12.77,1.46-16.87,2.88-1.71,.59-2.84,2.22-2.84,4.04v47.09c0,2.88,2.8,4.98,5.55,4.1,3.8-1.22,8.73-2.28,14.53-2.26,9.08,.04,16.02,2.71,19.71,4.44,3.69-1.73,10.63-4.4,19.71-4.44,5.79-.02,10.73,1.03,14.53,2.26,2.74,.88,5.55-1.21,5.55-4.1v-47.09c0-1.81-1.13-3.44-2.84-4.04-4.09-1.42-9.88-2.85-16.87-2.88Z"/>
  <path class="cls-1" d="M200.62,174.75H47.07c-1.95,0-3.53,1.58-3.53,3.53v6.83c0,1.95,1.58,3.53,3.53,3.53h12.74v29.59c0,1.95,1.58,3.53,3.53,3.53h121.01c1.95,0,3.53-1.58,3.53-3.53v-29.59h12.74c1.95,0,3.53-1.58,3.53-3.53v-6.83c0-1.95-1.58-3.53-3.53-3.53Z"/>
  <path class="cls-2" d="M125.61,110.98l3.66-6.34c1.01-1.76-.25-3.95-2.28-3.95h-6.3c-2.03,0-3.3,2.2-2.28,3.95l3.66,6.34c.33,.58,.44,1.26,.28,1.91l-5.99,25.78c-.15,.67-.04,1.37,.31,1.95l4.91,8.17c1.02,1.7,3.49,1.7,4.52,0l4.91-8.17c.35-.59,.46-1.29,.31-1.95l-5.99-25.78c-.15-.65-.05-1.33,.28-1.91Z"/>
</svg>