<?xml version="1.0" encoding="UTF-8"?>
<svg id="Layer_1" data-name="Layer 1" xmlns="http://www.w3.org/2000/svg" width="250" height="250" viewBox="0 0 250 250">
  <defs>
    <style>
      .cls-1, .cls-2 {
        fill: #ed0017;
      }

      .cls-3 {
        fill: #fbccd1;
      }

      .cls-4 {
        fill: none;
        stroke: #fff;
        stroke-linecap: round;
        stroke-miterlimit: 10;
        stroke-width: 7px;
      }

      .cls-2 {
        font-family: 'Nunito_736.000wght', Nunito;
        font-size: 72.47px;
        font-variation-settings: 'wght' 736;
      }
    </style>
  </defs>
  <path class="cls-3" d="M222,47.17V191.94c-.54-.26-1.11-.48-1.7-.65-14.77-4.32-27.22-6.12-42.99-6.19h-.51c-16.22,0-32.24,2.24-47.66,6.65-.07-.02-.14-.04-.21-.06V49.52c10.64-4.64,25.98-9.66,44.73-10.4,20.37-.79,37.09,3.77,48.34,8.05Z"/>
  <path class="cls-1" d="M40.75,54.13V197.27c13.14-3.37,26.64-5.11,40.24-5.17,16.29-.06,32.51,2.26,48.15,6.94,15.64-4.68,31.85-6.99,48.15-6.94,15.17,.07,26.99,1.79,41.05,5.9,2.17,.64,3.67,2.63,3.67,4.9v2.12c0,3.33-3.14,5.79-6.36,4.94-12.53-3.33-25.43-5.05-38.42-5.11-15.7-.09-31.21,2.26-46.19,6.94l-1.9,.59-1.9-.59c-14.75-4.61-30.04-6.95-45.48-6.95h-.11c-15.38,.01-30.67,2.35-45.36,6.94l-4.65,1.46c-1.81,.56-3.64-.78-3.64-2.68V54.13c0-2.76,2.24-5,5-5h2.75c2.76,0,5,2.24,5,5Z"/>
  <path class="cls-3" d="M128.93,49.52V191.69c-15.35-4.37-31.26-6.59-47.32-6.59h-.65c-11.14,.05-22.26,1.19-33.17,3.38V46.28c9.18-3.56,20.69-7.21,36.41-7.16,19.27,.07,34.76,5.66,44.73,10.4Z"/>
  <text class="cls-2" transform="translate(64.05 103.4)"><tspan x="0" y="0">А</tspan></text>
  <g>
    <path class="cls-1" d="M214.05,90.6l-1.17-1.17c-1.19-1.19-3.13-1.19-4.33,0l-2.64,2.64-.1-.1c-1.19-1.19-3.13-1.19-4.33,0l-57.07,57.07c-.56,.56-.98,1.24-1.23,1.99l-2.69,8.07c-.8,2.39,1.48,4.67,3.87,3.87l8.07-2.69c.75-.25,1.43-.67,1.99-1.23l57.07-57.07c1.19-1.19,1.19-3.13,0-4.33l-.1-.1,2.64-2.64c1.19-1.19,1.19-3.13,0-4.33Z"/>
    <rect class="cls-1" x="193.07" y="110.85" width="28.32" height="5.12" rx="2.04" ry="2.04" transform="translate(-19.49 179.75) rotate(-45)"/>
  </g>
  <path class="cls-1" d="M140.84,62.82c-1.25,0-2.42-.77-2.87-2.01-.58-1.59,.23-3.34,1.82-3.92,6.93-2.54,14.14-4.31,21.43-5.26,9.62-1.26,19.39-1.1,29.02,.46,1.67,.27,2.8,1.84,2.53,3.51-.27,1.67-1.85,2.8-3.51,2.53-9.04-1.47-18.21-1.62-27.25-.44-6.85,.89-13.61,2.56-20.12,4.94-.35,.13-.7,.19-1.05,.19Z"/>
  <path class="cls-1" d="M140.84,74.57c-1.24,0-2.4-.75-2.86-1.98-.6-1.58,.2-3.35,1.78-3.94,5.5-2.08,11.23-3.64,17.02-4.64,6.25-1.08,12.64-1.52,18.99-1.29,1.69,.06,3.01,1.48,2.95,3.16-.06,1.65-1.41,2.95-3.05,2.95-.04,0-.07,0-.11,0-5.93-.21-11.89,.2-17.73,1.21-5.41,.93-10.76,2.39-15.89,4.34-.36,.13-.72,.2-1.08,.2Z"/>
  <path class="cls-4" d="M67.23,128.86c5.32-1.89,13.36-4.05,23.31-4.2,11.11-.17,20.02,2.22,25.61,4.2"/>
  <path class="cls-4" d="M67.23,143.75c5.32-1.89,13.36-4.05,23.31-4.2,11.11-.17,20.02,2.22,25.61,4.2"/>
</svg>