<svg xmlns="http://www.w3.org/2000/svg" xmlns:xlink="http://www.w3.org/1999/xlink" width="405" zoomAndPan="magnify" viewBox="0 0 303.75 96.749999" height="129" preserveAspectRatio="xMidYMid meet" version="1.0"><defs><g/><clipPath id="14fbeaad7f"><path d="M 0.265625 6 L 110.980469 6 L 110.980469 81 L 0.265625 81 Z M 0.265625 6 " clip-rule="nonzero"/></clipPath><clipPath id="a370805886"><path d="M 31 83 L 81 83 L 81 95.753906 L 31 95.753906 Z M 31 83 " clip-rule="nonzero"/></clipPath></defs><path fill="#0b60db" d="M 53.289062 72.859375 C 53.289062 74.253906 54.417969 75.382812 55.8125 75.382812 C 57.207031 75.382812 58.335938 74.253906 58.335938 72.859375 C 58.335938 71.464844 57.207031 70.335938 55.8125 70.335938 C 54.417969 70.335938 53.289062 71.464844 53.289062 72.859375 " fill-opacity="1" fill-rule="nonzero"/><path fill="#0b60db" d="M 10.589844 2.714844 L 44.628906 2.714844 C 50.050781 2.714844 54.460938 7.125 54.460938 12.546875 L 54.460938 64.234375 L 10.589844 64.234375 Z M 57.164062 12.546875 C 57.164062 7.125 61.574219 2.714844 66.996094 2.714844 L 101.035156 2.714844 L 101.035156 64.234375 L 57.164062 64.234375 Z M 9.238281 66.9375 L 102.386719 66.9375 C 103.132812 66.9375 103.738281 66.332031 103.738281 65.585938 L 103.738281 1.363281 C 103.738281 0.617188 103.132812 0.0117188 102.386719 0.0117188 L 66.996094 0.0117188 C 62.109375 0.0117188 57.878906 2.828125 55.8125 6.917969 C 53.746094 2.828125 49.515625 0.0117188 44.628906 0.0117188 L 9.238281 0.0117188 C 8.492188 0.0117188 7.886719 0.617188 7.886719 1.363281 L 7.886719 65.585938 C 7.886719 66.332031 8.492188 66.9375 9.238281 66.9375 " fill-opacity="1" fill-rule="nonzero"/><g clip-path="url(#14fbeaad7f)"><path fill="#0b60db" d="M 109.777344 6.355469 L 106.179688 6.355469 L 106.179688 9.195312 L 108.359375 9.195312 L 108.359375 77.328125 L 3.265625 77.328125 L 3.265625 9.195312 L 5.449219 9.195312 L 5.449219 6.355469 L 1.847656 6.355469 C 1.0625 6.355469 0.425781 6.992188 0.425781 7.773438 L 0.425781 78.75 C 0.425781 79.535156 1.0625 80.167969 1.847656 80.167969 L 109.777344 80.167969 C 110.5625 80.167969 111.199219 79.535156 111.199219 78.75 L 111.199219 7.773438 C 111.199219 6.992188 110.5625 6.355469 109.777344 6.355469 " fill-opacity="1" fill-rule="nonzero"/></g><path fill="#0b60db" d="M 46.152344 10.957031 L 15.875 10.957031 C 15.5 10.957031 15.199219 11.261719 15.199219 11.632812 C 15.199219 12.007812 15.5 12.308594 15.875 12.308594 L 46.152344 12.308594 C 46.527344 12.308594 46.828125 12.007812 46.828125 11.632812 C 46.828125 11.261719 46.527344 10.957031 46.152344 10.957031 " fill-opacity="1" fill-rule="nonzero"/><path fill="#0b60db" d="M 46.152344 18.816406 L 15.875 18.816406 C 15.5 18.816406 15.199219 19.121094 15.199219 19.492188 C 15.199219 19.867188 15.5 20.167969 15.875 20.167969 L 46.152344 20.167969 C 46.527344 20.167969 46.828125 19.867188 46.828125 19.492188 C 46.828125 19.121094 46.527344 18.816406 46.152344 18.816406 " fill-opacity="1" fill-rule="nonzero"/><path fill="#0b60db" d="M 46.152344 26.679688 L 15.875 26.679688 C 15.5 26.679688 15.199219 26.980469 15.199219 27.355469 C 15.199219 27.726562 15.5 28.027344 15.875 28.027344 L 46.152344 28.027344 C 46.527344 28.027344 46.828125 27.726562 46.828125 27.355469 C 46.828125 26.980469 46.527344 26.679688 46.152344 26.679688 " fill-opacity="1" fill-rule="nonzero"/><path fill="#0b60db" d="M 46.152344 58.121094 L 15.875 58.121094 C 15.5 58.121094 15.199219 58.421875 15.199219 58.796875 C 15.199219 59.171875 15.5 59.472656 15.875 59.472656 L 46.152344 59.472656 C 46.527344 59.472656 46.828125 59.171875 46.828125 58.796875 C 46.828125 58.421875 46.527344 58.121094 46.152344 58.121094 " fill-opacity="1" fill-rule="nonzero"/><path fill="#0b60db" d="M 15.875 35.890625 L 36.0625 35.890625 C 36.433594 35.890625 36.734375 35.585938 36.734375 35.214844 C 36.734375 34.84375 36.433594 34.539062 36.0625 34.539062 L 15.875 34.539062 C 15.5 34.539062 15.199219 34.84375 15.199219 35.214844 C 15.199219 35.585938 15.5 35.890625 15.875 35.890625 " fill-opacity="1" fill-rule="nonzero"/><path fill="#0b60db" d="M 15.875 43.75 L 36.0625 43.75 C 36.433594 43.75 36.734375 43.445312 36.734375 43.074219 C 36.734375 42.703125 36.433594 42.398438 36.0625 42.398438 L 15.875 42.398438 C 15.5 42.398438 15.199219 42.703125 15.199219 43.074219 C 15.199219 43.445312 15.5 43.75 15.875 43.75 " fill-opacity="1" fill-rule="nonzero"/><path fill="#0b60db" d="M 15.875 51.609375 L 36.0625 51.609375 C 36.433594 51.609375 36.734375 51.308594 36.734375 50.933594 C 36.734375 50.5625 36.433594 50.257812 36.0625 50.257812 L 15.875 50.257812 C 15.5 50.257812 15.199219 50.5625 15.199219 50.933594 C 15.199219 51.308594 15.5 51.609375 15.875 51.609375 " fill-opacity="1" fill-rule="nonzero"/><path fill="#0b60db" d="M 95.75 26.679688 L 65.46875 26.679688 C 65.097656 26.679688 64.792969 26.980469 64.792969 27.355469 C 64.792969 27.726562 65.097656 28.027344 65.46875 28.027344 L 95.75 28.027344 C 96.125 28.027344 96.425781 27.726562 96.425781 27.355469 C 96.425781 26.980469 96.125 26.679688 95.75 26.679688 " fill-opacity="1" fill-rule="nonzero"/><path fill="#0b60db" d="M 95.75 58.121094 L 65.46875 58.121094 C 65.097656 58.121094 64.792969 58.421875 64.792969 58.796875 C 64.792969 59.171875 65.097656 59.472656 65.46875 59.472656 L 95.75 59.472656 C 96.125 59.472656 96.425781 59.171875 96.425781 58.796875 C 96.425781 58.421875 96.125 58.121094 95.75 58.121094 " fill-opacity="1" fill-rule="nonzero"/><path fill="#0b60db" d="M 95.75 34.539062 L 75.5625 34.539062 C 75.191406 34.539062 74.886719 34.84375 74.886719 35.214844 C 74.886719 35.585938 75.191406 35.890625 75.5625 35.890625 L 95.75 35.890625 C 96.125 35.890625 96.425781 35.585938 96.425781 35.214844 C 96.425781 34.84375 96.125 34.539062 95.75 34.539062 " fill-opacity="1" fill-rule="nonzero"/><path fill="#0b60db" d="M 95.75 42.398438 L 75.5625 42.398438 C 75.191406 42.398438 74.886719 42.703125 74.886719 43.074219 C 74.886719 43.445312 75.191406 43.75 75.5625 43.75 L 95.75 43.75 C 96.125 43.75 96.425781 43.445312 96.425781 43.074219 C 96.425781 42.703125 96.125 42.398438 95.75 42.398438 " fill-opacity="1" fill-rule="nonzero"/><path fill="#0b60db" d="M 95.75 50.257812 L 75.5625 50.257812 C 75.191406 50.257812 74.886719 50.5625 74.886719 50.933594 C 74.886719 51.308594 75.191406 51.609375 75.5625 51.609375 L 95.75 51.609375 C 96.125 51.609375 96.425781 51.308594 96.425781 50.933594 C 96.425781 50.5625 96.125 50.257812 95.75 50.257812 " fill-opacity="1" fill-rule="nonzero"/><path fill="#0b60db" d="M 95.074219 23.753906 L 66.144531 23.753906 L 66.144531 11.445312 L 95.074219 11.445312 Z M 95.75 10.09375 L 65.46875 10.09375 C 65.097656 10.09375 64.792969 10.398438 64.792969 10.769531 L 64.792969 24.425781 C 64.792969 24.800781 65.097656 25.101562 65.46875 25.101562 L 95.75 25.101562 C 96.125 25.101562 96.425781 24.800781 96.425781 24.425781 L 96.425781 10.769531 C 96.425781 10.398438 96.125 10.09375 95.75 10.09375 " fill-opacity="1" fill-rule="nonzero"/><g clip-path="url(#a370805886)"><path fill="#0b60db" d="M 79.074219 88.476562 L 73.148438 88.476562 C 69.546875 88.476562 66.441406 86.328125 65.027344 83.25 L 61.980469 83.25 C 63.539062 87.929688 67.953125 91.3125 73.148438 91.3125 L 77.65625 91.3125 L 77.65625 93.101562 L 33.96875 93.101562 L 33.96875 91.3125 L 38.476562 91.3125 C 43.671875 91.3125 48.085938 87.929688 49.644531 83.25 L 46.597656 83.25 C 45.183594 86.328125 42.078125 88.476562 38.476562 88.476562 L 32.546875 88.476562 C 31.765625 88.476562 31.128906 89.109375 31.128906 89.894531 L 31.128906 94.523438 C 31.128906 95.304688 31.765625 95.941406 32.546875 95.941406 L 79.074219 95.941406 C 79.859375 95.941406 80.496094 95.304688 80.496094 94.523438 L 80.496094 89.894531 C 80.496094 89.109375 79.859375 88.476562 79.074219 88.476562 " fill-opacity="1" fill-rule="nonzero"/></g><g fill="#000000" fill-opacity="1"><g transform="translate(124.48231, 41.763431)"><g><path d="M 11.796875 0.359375 C 8.796875 0.359375 6.460938 -0.46875 4.796875 -2.125 C 3.128906 -3.78125 2.296875 -6.144531 2.296875 -9.21875 L 2.296875 -20.9375 L 7.15625 -20.9375 L 7.15625 -9.390625 C 7.15625 -5.640625 8.707031 -3.765625 11.8125 -3.765625 C 13.332031 -3.765625 14.488281 -4.21875 15.28125 -5.125 C 16.082031 -6.039062 16.484375 -7.460938 16.484375 -9.390625 L 16.484375 -20.9375 L 21.28125 -20.9375 L 21.28125 -9.21875 C 21.28125 -6.144531 20.445312 -3.78125 18.78125 -2.125 C 17.113281 -0.46875 14.785156 0.359375 11.796875 0.359375 Z M 11.796875 0.359375 "/></g></g></g><g fill="#000000" fill-opacity="1"><g transform="translate(148.659821, 41.763431)"><g><path d="M 11.9375 -16.34375 C 13.9375 -16.34375 15.546875 -15.742188 16.765625 -14.546875 C 17.992188 -13.347656 18.609375 -11.570312 18.609375 -9.21875 L 18.609375 0 L 13.9375 0 L 13.9375 -8.5 C 13.9375 -9.769531 13.65625 -10.71875 13.09375 -11.34375 C 12.539062 -11.976562 11.738281 -12.296875 10.6875 -12.296875 C 9.507812 -12.296875 8.570312 -11.929688 7.875 -11.203125 C 7.175781 -10.472656 6.828125 -9.390625 6.828125 -7.953125 L 6.828125 0 L 2.15625 0 L 2.15625 -16.09375 L 6.609375 -16.09375 L 6.609375 -14.21875 C 7.234375 -14.894531 8.003906 -15.414062 8.921875 -15.78125 C 9.835938 -16.15625 10.84375 -16.34375 11.9375 -16.34375 Z M 11.9375 -16.34375 "/></g></g></g><g fill="#000000" fill-opacity="1"><g transform="translate(169.934828, 41.763431)"><g><path d="M 2.15625 -16.09375 L 6.828125 -16.09375 L 6.828125 0 L 2.15625 0 Z M 4.5 -18.34375 C 3.632812 -18.34375 2.929688 -18.59375 2.390625 -19.09375 C 1.859375 -19.59375 1.59375 -20.207031 1.59375 -20.9375 C 1.59375 -21.675781 1.859375 -22.296875 2.390625 -22.796875 C 2.929688 -23.296875 3.632812 -23.546875 4.5 -23.546875 C 5.351562 -23.546875 6.046875 -23.304688 6.578125 -22.828125 C 7.117188 -22.347656 7.390625 -21.75 7.390625 -21.03125 C 7.390625 -20.257812 7.117188 -19.617188 6.578125 -19.109375 C 6.046875 -18.597656 5.351562 -18.34375 4.5 -18.34375 Z M 4.5 -18.34375 "/></g></g></g><g fill="#000000" fill-opacity="1"><g transform="translate(179.540005, 41.763431)"><g><path d="M 12.5 0.359375 C 10.375 0.359375 8.445312 -0.101562 6.71875 -1.03125 C 4.988281 -1.957031 3.628906 -3.242188 2.640625 -4.890625 C 1.660156 -6.535156 1.171875 -8.394531 1.171875 -10.46875 C 1.171875 -12.539062 1.660156 -14.398438 2.640625 -16.046875 C 3.628906 -17.691406 4.988281 -18.976562 6.71875 -19.90625 C 8.445312 -20.832031 10.382812 -21.296875 12.53125 -21.296875 C 14.351562 -21.296875 15.992188 -20.976562 17.453125 -20.34375 C 18.921875 -19.707031 20.15625 -18.789062 21.15625 -17.59375 L 18.046875 -14.71875 C 16.628906 -16.351562 14.875 -17.171875 12.78125 -17.171875 C 11.476562 -17.171875 10.316406 -16.882812 9.296875 -16.3125 C 8.285156 -15.75 7.492188 -14.957031 6.921875 -13.9375 C 6.359375 -12.925781 6.078125 -11.769531 6.078125 -10.46875 C 6.078125 -9.175781 6.359375 -8.019531 6.921875 -7 C 7.492188 -5.976562 8.285156 -5.179688 9.296875 -4.609375 C 10.316406 -4.046875 11.476562 -3.765625 12.78125 -3.765625 C 14.875 -3.765625 16.628906 -4.59375 18.046875 -6.25 L 21.15625 -3.375 C 20.15625 -2.164062 18.914062 -1.238281 17.4375 -0.59375 C 15.96875 0.0390625 14.320312 0.359375 12.5 0.359375 Z M 12.5 0.359375 "/></g></g></g><g fill="#000000" fill-opacity="1"><g transform="translate(202.071772, 41.763431)"><g><path d="M 9.8125 0.234375 C 8.113281 0.234375 6.59375 -0.117188 5.25 -0.828125 C 3.90625 -1.535156 2.851562 -2.515625 2.09375 -3.765625 C 1.332031 -5.023438 0.953125 -6.453125 0.953125 -8.046875 C 0.953125 -9.640625 1.332031 -11.066406 2.09375 -12.328125 C 2.851562 -13.585938 3.90625 -14.570312 5.25 -15.28125 C 6.59375 -15.988281 8.113281 -16.34375 9.8125 -16.34375 C 11.507812 -16.34375 13.023438 -15.988281 14.359375 -15.28125 C 15.703125 -14.570312 16.75 -13.585938 17.5 -12.328125 C 18.257812 -11.066406 18.640625 -9.640625 18.640625 -8.046875 C 18.640625 -6.453125 18.257812 -5.023438 17.5 -3.765625 C 16.75 -2.515625 15.703125 -1.535156 14.359375 -0.828125 C 13.023438 -0.117188 11.507812 0.234375 9.8125 0.234375 Z M 9.8125 -3.59375 C 11.007812 -3.59375 11.988281 -3.992188 12.75 -4.796875 C 13.519531 -5.609375 13.90625 -6.691406 13.90625 -8.046875 C 13.90625 -9.398438 13.519531 -10.476562 12.75 -11.28125 C 11.988281 -12.09375 11.007812 -12.5 9.8125 -12.5 C 8.613281 -12.5 7.625 -12.09375 6.84375 -11.28125 C 6.070312 -10.476562 5.6875 -9.398438 5.6875 -8.046875 C 5.6875 -6.691406 6.070312 -5.609375 6.84375 -4.796875 C 7.625 -3.992188 8.613281 -3.59375 9.8125 -3.59375 Z M 9.8125 -3.59375 "/></g></g></g><g fill="#000000" fill-opacity="1"><g transform="translate(222.269569, 41.763431)"><g><path d="M 18.375 -16.09375 L 18.375 0 L 13.9375 0 L 13.9375 -1.921875 C 13.320312 -1.222656 12.582031 -0.6875 11.71875 -0.3125 C 10.863281 0.0507812 9.941406 0.234375 8.953125 0.234375 C 6.835938 0.234375 5.160156 -0.367188 3.921875 -1.578125 C 2.679688 -2.796875 2.0625 -4.601562 2.0625 -7 L 2.0625 -16.09375 L 6.734375 -16.09375 L 6.734375 -7.6875 C 6.734375 -5.09375 7.820312 -3.796875 10 -3.796875 C 11.113281 -3.796875 12.007812 -4.160156 12.6875 -4.890625 C 13.363281 -5.617188 13.703125 -6.703125 13.703125 -8.140625 L 13.703125 -16.09375 Z M 18.375 -16.09375 "/></g></g></g><g fill="#000000" fill-opacity="1"><g transform="translate(243.424891, 41.763431)"><g><path d="M 6.609375 -13.96875 C 7.171875 -14.75 7.925781 -15.335938 8.875 -15.734375 C 9.820312 -16.140625 10.910156 -16.34375 12.140625 -16.34375 L 12.140625 -12.03125 C 11.628906 -12.070312 11.28125 -12.09375 11.09375 -12.09375 C 9.757812 -12.09375 8.710938 -11.71875 7.953125 -10.96875 C 7.203125 -10.21875 6.828125 -9.09375 6.828125 -7.59375 L 6.828125 0 L 2.15625 0 L 2.15625 -16.09375 L 6.609375 -16.09375 Z M 6.609375 -13.96875 "/></g></g></g><g fill="#000000" fill-opacity="1"><g transform="translate(256.920014, 41.763431)"><g><path d="M 7.5625 0.234375 C 6.226562 0.234375 4.921875 0.0703125 3.640625 -0.25 C 2.367188 -0.582031 1.351562 -1 0.59375 -1.5 L 2.15625 -4.84375 C 2.875 -4.382812 3.738281 -4.007812 4.75 -3.71875 C 5.769531 -3.4375 6.769531 -3.296875 7.75 -3.296875 C 9.726562 -3.296875 10.71875 -3.78125 10.71875 -4.75 C 10.71875 -5.21875 10.445312 -5.550781 9.90625 -5.75 C 9.363281 -5.945312 8.535156 -6.113281 7.421875 -6.25 C 6.109375 -6.445312 5.019531 -6.675781 4.15625 -6.9375 C 3.300781 -7.195312 2.554688 -7.65625 1.921875 -8.3125 C 1.296875 -8.976562 0.984375 -9.914062 0.984375 -11.125 C 0.984375 -12.144531 1.273438 -13.046875 1.859375 -13.828125 C 2.453125 -14.617188 3.3125 -15.234375 4.4375 -15.671875 C 5.570312 -16.117188 6.90625 -16.34375 8.4375 -16.34375 C 9.570312 -16.34375 10.703125 -16.21875 11.828125 -15.96875 C 12.960938 -15.71875 13.894531 -15.375 14.625 -14.9375 L 13.078125 -11.609375 C 11.660156 -12.410156 10.113281 -12.8125 8.4375 -12.8125 C 7.4375 -12.8125 6.6875 -12.671875 6.1875 -12.390625 C 5.695312 -12.109375 5.453125 -11.75 5.453125 -11.3125 C 5.453125 -10.8125 5.71875 -10.460938 6.25 -10.265625 C 6.789062 -10.066406 7.648438 -9.875 8.828125 -9.6875 C 10.140625 -9.46875 11.210938 -9.234375 12.046875 -8.984375 C 12.890625 -8.742188 13.617188 -8.289062 14.234375 -7.625 C 14.859375 -6.96875 15.171875 -6.050781 15.171875 -4.875 C 15.171875 -3.875 14.867188 -2.984375 14.265625 -2.203125 C 13.671875 -1.429688 12.800781 -0.832031 11.65625 -0.40625 C 10.507812 0.0195312 9.144531 0.234375 7.5625 0.234375 Z M 7.5625 0.234375 "/></g></g></g><g fill="#000000" fill-opacity="1"><g transform="translate(273.407394, 41.763431)"><g><path d="M 17.921875 -7.984375 C 17.921875 -7.929688 17.890625 -7.515625 17.828125 -6.734375 L 5.65625 -6.734375 C 5.875 -5.734375 6.390625 -4.941406 7.203125 -4.359375 C 8.023438 -3.785156 9.046875 -3.5 10.265625 -3.5 C 11.097656 -3.5 11.835938 -3.625 12.484375 -3.875 C 13.140625 -4.125 13.742188 -4.519531 14.296875 -5.0625 L 16.78125 -2.359375 C 15.269531 -0.628906 13.054688 0.234375 10.140625 0.234375 C 8.328125 0.234375 6.722656 -0.117188 5.328125 -0.828125 C 3.929688 -1.535156 2.851562 -2.515625 2.09375 -3.765625 C 1.332031 -5.023438 0.953125 -6.453125 0.953125 -8.046875 C 0.953125 -9.617188 1.328125 -11.039062 2.078125 -12.3125 C 2.828125 -13.582031 3.851562 -14.570312 5.15625 -15.28125 C 6.46875 -15.988281 7.929688 -16.34375 9.546875 -16.34375 C 11.117188 -16.34375 12.539062 -16 13.8125 -15.3125 C 15.09375 -14.632812 16.097656 -13.660156 16.828125 -12.390625 C 17.554688 -11.128906 17.921875 -9.660156 17.921875 -7.984375 Z M 9.578125 -12.8125 C 8.515625 -12.8125 7.625 -12.507812 6.90625 -11.90625 C 6.1875 -11.3125 5.75 -10.492188 5.59375 -9.453125 L 13.53125 -9.453125 C 13.363281 -10.472656 12.921875 -11.285156 12.203125 -11.890625 C 11.484375 -12.503906 10.609375 -12.8125 9.578125 -12.8125 Z M 9.578125 -12.8125 "/></g></g></g><g fill="#545454" fill-opacity="1"><g transform="translate(125.279469, 65.209979)"><g><path d="M 3.640625 -7.875 L 5.703125 -7.875 L 5.703125 -6.078125 L 3.703125 -6.078125 L 3.703125 0 L 1.359375 0 L 1.359375 -6.078125 L 0.125 -6.078125 L 0.125 -7.875 L 1.359375 -7.875 L 1.359375 -8.234375 C 1.359375 -9.148438 1.628906 -9.875 2.171875 -10.40625 C 2.722656 -10.945312 3.488281 -11.21875 4.46875 -11.21875 C 4.820312 -11.21875 5.15625 -11.179688 5.46875 -11.109375 C 5.78125 -11.035156 6.039062 -10.929688 6.25 -10.796875 L 5.640625 -9.09375 C 5.367188 -9.289062 5.054688 -9.390625 4.703125 -9.390625 C 3.992188 -9.390625 3.640625 -9 3.640625 -8.21875 Z M 3.640625 -7.875 "/></g></g></g><g fill="#545454" fill-opacity="1"><g transform="translate(131.368739, 65.209979)"><g><path d="M 4.90625 0.125 C 4.0625 0.125 3.300781 -0.0507812 2.625 -0.40625 C 1.945312 -0.757812 1.421875 -1.25 1.046875 -1.875 C 0.671875 -2.507812 0.484375 -3.226562 0.484375 -4.03125 C 0.484375 -4.820312 0.671875 -5.53125 1.046875 -6.15625 C 1.421875 -6.789062 1.945312 -7.285156 2.625 -7.640625 C 3.300781 -7.992188 4.0625 -8.171875 4.90625 -8.171875 C 5.757812 -8.171875 6.519531 -7.992188 7.1875 -7.640625 C 7.851562 -7.285156 8.375 -6.789062 8.75 -6.15625 C 9.132812 -5.53125 9.328125 -4.820312 9.328125 -4.03125 C 9.328125 -3.226562 9.132812 -2.507812 8.75 -1.875 C 8.375 -1.25 7.851562 -0.757812 7.1875 -0.40625 C 6.519531 -0.0507812 5.757812 0.125 4.90625 0.125 Z M 4.90625 -1.796875 C 5.507812 -1.796875 6 -2 6.375 -2.40625 C 6.757812 -2.8125 6.953125 -3.351562 6.953125 -4.03125 C 6.953125 -4.707031 6.757812 -5.242188 6.375 -5.640625 C 6 -6.046875 5.507812 -6.25 4.90625 -6.25 C 4.3125 -6.25 3.816406 -6.046875 3.421875 -5.640625 C 3.035156 -5.242188 2.84375 -4.707031 2.84375 -4.03125 C 2.84375 -3.351562 3.035156 -2.8125 3.421875 -2.40625 C 3.816406 -2 4.3125 -1.796875 4.90625 -1.796875 Z M 4.90625 -1.796875 "/></g></g></g><g fill="#545454" fill-opacity="1"><g transform="translate(141.467648, 65.209979)"><g><path d="M 3.3125 -6.984375 C 3.59375 -7.378906 3.96875 -7.675781 4.4375 -7.875 C 4.914062 -8.070312 5.460938 -8.171875 6.078125 -8.171875 L 6.078125 -6.015625 C 5.816406 -6.035156 5.640625 -6.046875 5.546875 -6.046875 C 4.878906 -6.046875 4.351562 -5.859375 3.96875 -5.484375 C 3.59375 -5.109375 3.40625 -4.546875 3.40625 -3.796875 L 3.40625 0 L 1.078125 0 L 1.078125 -8.046875 L 3.3125 -8.046875 Z M 3.3125 -6.984375 "/></g></g></g><g fill="#545454" fill-opacity="1"><g transform="translate(148.21522, 65.209979)"><g/></g></g><g fill="#545454" fill-opacity="1"><g transform="translate(152.748509, 65.209979)"><g><path d="M 6.265625 -0.390625 C 6.035156 -0.222656 5.753906 -0.09375 5.421875 0 C 5.085938 0.0820312 4.738281 0.125 4.375 0.125 C 3.414062 0.125 2.671875 -0.117188 2.140625 -0.609375 C 1.617188 -1.097656 1.359375 -1.816406 1.359375 -2.765625 L 1.359375 -6.078125 L 0.125 -6.078125 L 0.125 -7.875 L 1.359375 -7.875 L 1.359375 -9.828125 L 3.703125 -9.828125 L 3.703125 -7.875 L 5.703125 -7.875 L 5.703125 -6.078125 L 3.703125 -6.078125 L 3.703125 -2.796875 C 3.703125 -2.460938 3.785156 -2.203125 3.953125 -2.015625 C 4.128906 -1.828125 4.378906 -1.734375 4.703125 -1.734375 C 5.066406 -1.734375 5.378906 -1.832031 5.640625 -2.03125 Z M 6.265625 -0.390625 "/></g></g></g><g fill="#545454" fill-opacity="1"><g transform="translate(159.555929, 65.209979)"><g><path d="M 8.96875 -4 C 8.96875 -3.96875 8.953125 -3.757812 8.921875 -3.375 L 2.828125 -3.375 C 2.941406 -2.875 3.203125 -2.476562 3.609375 -2.1875 C 4.015625 -1.894531 4.523438 -1.75 5.140625 -1.75 C 5.554688 -1.75 5.925781 -1.8125 6.25 -1.9375 C 6.570312 -2.0625 6.875 -2.257812 7.15625 -2.53125 L 8.390625 -1.1875 C 7.640625 -0.3125 6.535156 0.125 5.078125 0.125 C 4.171875 0.125 3.363281 -0.0507812 2.65625 -0.40625 C 1.957031 -0.757812 1.421875 -1.25 1.046875 -1.875 C 0.671875 -2.507812 0.484375 -3.226562 0.484375 -4.03125 C 0.484375 -4.8125 0.671875 -5.519531 1.046875 -6.15625 C 1.421875 -6.789062 1.929688 -7.285156 2.578125 -7.640625 C 3.234375 -7.992188 3.96875 -8.171875 4.78125 -8.171875 C 5.5625 -8.171875 6.269531 -8 6.90625 -7.65625 C 7.550781 -7.320312 8.054688 -6.835938 8.421875 -6.203125 C 8.785156 -5.566406 8.96875 -4.832031 8.96875 -4 Z M 4.796875 -6.40625 C 4.265625 -6.40625 3.816406 -6.253906 3.453125 -5.953125 C 3.097656 -5.660156 2.878906 -5.253906 2.796875 -4.734375 L 6.765625 -4.734375 C 6.679688 -5.242188 6.457031 -5.648438 6.09375 -5.953125 C 5.738281 -6.253906 5.304688 -6.40625 4.796875 -6.40625 Z M 4.796875 -6.40625 "/></g></g></g><g fill="#545454" fill-opacity="1"><g transform="translate(169.29577, 65.209979)"><g><path d="M 4.328125 -8.171875 C 5.578125 -8.171875 6.535156 -7.875 7.203125 -7.28125 C 7.867188 -6.6875 8.203125 -5.789062 8.203125 -4.59375 L 8.203125 0 L 6.015625 0 L 6.015625 -1 C 5.578125 -0.25 4.757812 0.125 3.5625 0.125 C 2.945312 0.125 2.410156 0.0195312 1.953125 -0.1875 C 1.492188 -0.40625 1.144531 -0.695312 0.90625 -1.0625 C 0.664062 -1.425781 0.546875 -1.84375 0.546875 -2.3125 C 0.546875 -3.0625 0.828125 -3.648438 1.390625 -4.078125 C 1.960938 -4.515625 2.835938 -4.734375 4.015625 -4.734375 L 5.875 -4.734375 C 5.875 -5.242188 5.71875 -5.632812 5.40625 -5.90625 C 5.09375 -6.175781 4.628906 -6.3125 4.015625 -6.3125 C 3.585938 -6.3125 3.164062 -6.242188 2.75 -6.109375 C 2.332031 -5.972656 1.976562 -5.789062 1.6875 -5.5625 L 0.859375 -7.203125 C 1.296875 -7.503906 1.820312 -7.738281 2.4375 -7.90625 C 3.050781 -8.082031 3.679688 -8.171875 4.328125 -8.171875 Z M 4.140625 -1.453125 C 4.546875 -1.453125 4.898438 -1.539062 5.203125 -1.71875 C 5.515625 -1.90625 5.738281 -2.179688 5.875 -2.546875 L 5.875 -3.375 L 4.265625 -3.375 C 3.304688 -3.375 2.828125 -3.054688 2.828125 -2.421875 C 2.828125 -2.117188 2.941406 -1.878906 3.171875 -1.703125 C 3.410156 -1.535156 3.734375 -1.453125 4.140625 -1.453125 Z M 4.140625 -1.453125 "/></g></g></g><g fill="#545454" fill-opacity="1"><g transform="translate(178.826139, 65.209979)"><g><path d="M 4.96875 0.125 C 4.113281 0.125 3.34375 -0.0507812 2.65625 -0.40625 C 1.96875 -0.757812 1.429688 -1.25 1.046875 -1.875 C 0.671875 -2.507812 0.484375 -3.226562 0.484375 -4.03125 C 0.484375 -4.820312 0.671875 -5.53125 1.046875 -6.15625 C 1.429688 -6.789062 1.96875 -7.285156 2.65625 -7.640625 C 3.34375 -7.992188 4.113281 -8.171875 4.96875 -8.171875 C 5.8125 -8.171875 6.550781 -7.992188 7.1875 -7.640625 C 7.820312 -7.285156 8.285156 -6.78125 8.578125 -6.125 L 6.765625 -5.15625 C 6.347656 -5.882812 5.742188 -6.25 4.953125 -6.25 C 4.347656 -6.25 3.84375 -6.050781 3.4375 -5.65625 C 3.039062 -5.257812 2.84375 -4.71875 2.84375 -4.03125 C 2.84375 -3.34375 3.039062 -2.796875 3.4375 -2.390625 C 3.84375 -1.992188 4.347656 -1.796875 4.953125 -1.796875 C 5.753906 -1.796875 6.359375 -2.164062 6.765625 -2.90625 L 8.578125 -1.921875 C 8.285156 -1.273438 7.820312 -0.769531 7.1875 -0.40625 C 6.550781 -0.0507812 5.8125 0.125 4.96875 0.125 Z M 4.96875 0.125 "/></g></g></g><g fill="#545454" fill-opacity="1"><g transform="translate(187.967524, 65.209979)"><g><path d="M 5.96875 -8.171875 C 6.96875 -8.171875 7.773438 -7.867188 8.390625 -7.265625 C 9.003906 -6.671875 9.3125 -5.785156 9.3125 -4.609375 L 9.3125 0 L 6.96875 0 L 6.96875 -4.25 C 6.96875 -4.882812 6.828125 -5.359375 6.546875 -5.671875 C 6.273438 -5.992188 5.875 -6.15625 5.34375 -6.15625 C 4.75 -6.15625 4.273438 -5.972656 3.921875 -5.609375 C 3.578125 -5.242188 3.40625 -4.703125 3.40625 -3.984375 L 3.40625 0 L 1.078125 0 L 1.078125 -11.109375 L 3.40625 -11.109375 L 3.40625 -7.21875 C 3.71875 -7.519531 4.09375 -7.753906 4.53125 -7.921875 C 4.96875 -8.085938 5.445312 -8.171875 5.96875 -8.171875 Z M 5.96875 -8.171875 "/></g></g></g><g fill="#545454" fill-opacity="1"><g transform="translate(198.605043, 65.209979)"><g><path d="M 8.96875 -4 C 8.96875 -3.96875 8.953125 -3.757812 8.921875 -3.375 L 2.828125 -3.375 C 2.941406 -2.875 3.203125 -2.476562 3.609375 -2.1875 C 4.015625 -1.894531 4.523438 -1.75 5.140625 -1.75 C 5.554688 -1.75 5.925781 -1.8125 6.25 -1.9375 C 6.570312 -2.0625 6.875 -2.257812 7.15625 -2.53125 L 8.390625 -1.1875 C 7.640625 -0.3125 6.535156 0.125 5.078125 0.125 C 4.171875 0.125 3.363281 -0.0507812 2.65625 -0.40625 C 1.957031 -0.757812 1.421875 -1.25 1.046875 -1.875 C 0.671875 -2.507812 0.484375 -3.226562 0.484375 -4.03125 C 0.484375 -4.8125 0.671875 -5.519531 1.046875 -6.15625 C 1.421875 -6.789062 1.929688 -7.285156 2.578125 -7.640625 C 3.234375 -7.992188 3.96875 -8.171875 4.78125 -8.171875 C 5.5625 -8.171875 6.269531 -8 6.90625 -7.65625 C 7.550781 -7.320312 8.054688 -6.835938 8.421875 -6.203125 C 8.785156 -5.566406 8.96875 -4.832031 8.96875 -4 Z M 4.796875 -6.40625 C 4.265625 -6.40625 3.816406 -6.253906 3.453125 -5.953125 C 3.097656 -5.660156 2.878906 -5.253906 2.796875 -4.734375 L 6.765625 -4.734375 C 6.679688 -5.242188 6.457031 -5.648438 6.09375 -5.953125 C 5.738281 -6.253906 5.304688 -6.40625 4.796875 -6.40625 Z M 4.796875 -6.40625 "/></g></g></g><g fill="#545454" fill-opacity="1"><g transform="translate(208.344884, 65.209979)"><g><path d="M 3.3125 -6.984375 C 3.59375 -7.378906 3.96875 -7.675781 4.4375 -7.875 C 4.914062 -8.070312 5.460938 -8.171875 6.078125 -8.171875 L 6.078125 -6.015625 C 5.816406 -6.035156 5.640625 -6.046875 5.546875 -6.046875 C 4.878906 -6.046875 4.351562 -5.859375 3.96875 -5.484375 C 3.59375 -5.109375 3.40625 -4.546875 3.40625 -3.796875 L 3.40625 0 L 1.078125 0 L 1.078125 -8.046875 L 3.3125 -8.046875 Z M 3.3125 -6.984375 "/></g></g></g></svg>