<svg xmlns="http://www.w3.org/2000/svg" xmlns:xlink="http://www.w3.org/1999/xlink" width="179" zoomAndPan="magnify" viewBox="0 0 134.25 131.249995" height="175" preserveAspectRatio="xMidYMid meet" version="1.0"><defs><g/><clipPath id="d3f0d5f092"><path d="M 11.238281 6 L 121.605469 6 L 121.605469 80 L 11.238281 80 Z M 11.238281 6 " clip-rule="nonzero"/></clipPath><clipPath id="fb18fe9e20"><path d="M 42 82 L 92 82 L 92 95.453125 L 42 95.453125 Z M 42 82 " clip-rule="nonzero"/></clipPath></defs><path fill="#084bc1" d="M 64.09375 72.632812 C 64.09375 74.023438 65.222656 75.148438 66.609375 75.148438 C 68 75.148438 69.125 74.023438 69.125 72.632812 C 69.125 71.246094 68 70.117188 66.609375 70.117188 C 65.222656 70.117188 64.09375 71.246094 64.09375 72.632812 " fill-opacity="1" fill-rule="nonzero"/><path fill="#084bc1" d="M 21.527344 2.703125 L 55.460938 2.703125 C 60.867188 2.703125 65.261719 7.101562 65.261719 12.507812 L 65.261719 64.035156 L 21.527344 64.035156 Z M 67.957031 12.507812 C 67.957031 7.101562 72.355469 2.703125 77.757812 2.703125 L 111.695312 2.703125 L 111.695312 64.035156 L 67.957031 64.035156 Z M 20.179688 66.726562 L 113.039062 66.726562 C 113.785156 66.726562 114.386719 66.125 114.386719 65.382812 L 114.386719 1.359375 C 114.386719 0.617188 113.785156 0.0117188 113.039062 0.0117188 L 77.757812 0.0117188 C 72.886719 0.0117188 68.671875 2.820312 66.609375 6.894531 C 64.550781 2.820312 60.332031 0.0117188 55.460938 0.0117188 L 20.179688 0.0117188 C 19.4375 0.0117188 18.835938 0.617188 18.835938 1.359375 L 18.835938 65.382812 C 18.835938 66.125 19.4375 66.726562 20.179688 66.726562 " fill-opacity="1" fill-rule="nonzero"/><g clip-path="url(#d3f0d5f092)"><path fill="#084bc1" d="M 120.40625 6.335938 L 116.820312 6.335938 L 116.820312 9.167969 L 118.992188 9.167969 L 118.992188 77.089844 L 14.226562 77.089844 L 14.226562 9.167969 L 16.402344 9.167969 L 16.402344 6.335938 L 12.8125 6.335938 C 12.03125 6.335938 11.398438 6.96875 11.398438 7.75 L 11.398438 78.503906 C 11.398438 79.285156 12.03125 79.917969 12.8125 79.917969 L 120.40625 79.917969 C 121.1875 79.917969 121.824219 79.285156 121.824219 78.503906 L 121.824219 7.75 C 121.824219 6.96875 121.1875 6.335938 120.40625 6.335938 " fill-opacity="1" fill-rule="nonzero"/></g><path fill="#084bc1" d="M 56.980469 10.921875 L 26.796875 10.921875 C 26.425781 10.921875 26.125 11.226562 26.125 11.597656 C 26.125 11.96875 26.425781 12.269531 26.796875 12.269531 L 56.980469 12.269531 C 57.351562 12.269531 57.65625 11.96875 57.65625 11.597656 C 57.65625 11.226562 57.351562 10.921875 56.980469 10.921875 " fill-opacity="1" fill-rule="nonzero"/><path fill="#084bc1" d="M 56.980469 18.757812 L 26.796875 18.757812 C 26.425781 18.757812 26.125 19.058594 26.125 19.433594 C 26.125 19.804688 26.425781 20.105469 26.796875 20.105469 L 56.980469 20.105469 C 57.351562 20.105469 57.65625 19.804688 57.65625 19.433594 C 57.65625 19.058594 57.351562 18.757812 56.980469 18.757812 " fill-opacity="1" fill-rule="nonzero"/><path fill="#084bc1" d="M 56.980469 26.597656 L 26.796875 26.597656 C 26.425781 26.597656 26.125 26.898438 26.125 27.269531 C 26.125 27.640625 26.425781 27.941406 26.796875 27.941406 L 56.980469 27.941406 C 57.351562 27.941406 57.65625 27.640625 57.65625 27.269531 C 57.65625 26.898438 57.351562 26.597656 56.980469 26.597656 " fill-opacity="1" fill-rule="nonzero"/><path fill="#084bc1" d="M 56.980469 57.941406 L 26.796875 57.941406 C 26.425781 57.941406 26.125 58.242188 26.125 58.613281 C 26.125 58.984375 26.425781 59.285156 26.796875 59.285156 L 56.980469 59.285156 C 57.351562 59.285156 57.65625 58.984375 57.65625 58.613281 C 57.65625 58.242188 57.351562 57.941406 56.980469 57.941406 " fill-opacity="1" fill-rule="nonzero"/><path fill="#084bc1" d="M 26.796875 35.777344 L 46.921875 35.777344 C 47.292969 35.777344 47.59375 35.476562 47.59375 35.105469 C 47.59375 34.734375 47.292969 34.429688 46.921875 34.429688 L 26.796875 34.429688 C 26.425781 34.429688 26.125 34.734375 26.125 35.105469 C 26.125 35.476562 26.425781 35.777344 26.796875 35.777344 " fill-opacity="1" fill-rule="nonzero"/><path fill="#084bc1" d="M 26.796875 43.613281 L 46.921875 43.613281 C 47.292969 43.613281 47.59375 43.3125 47.59375 42.941406 C 47.59375 42.570312 47.292969 42.265625 46.921875 42.265625 L 26.796875 42.265625 C 26.425781 42.265625 26.125 42.570312 26.125 42.941406 C 26.125 43.3125 26.425781 43.613281 26.796875 43.613281 " fill-opacity="1" fill-rule="nonzero"/><path fill="#084bc1" d="M 26.796875 51.449219 L 46.921875 51.449219 C 47.292969 51.449219 47.59375 51.148438 47.59375 50.777344 C 47.59375 50.40625 47.292969 50.101562 46.921875 50.101562 L 26.796875 50.101562 C 26.425781 50.101562 26.125 50.40625 26.125 50.777344 C 26.125 51.148438 26.425781 51.449219 26.796875 51.449219 " fill-opacity="1" fill-rule="nonzero"/><path fill="#084bc1" d="M 106.421875 26.597656 L 76.238281 26.597656 C 75.867188 26.597656 75.566406 26.898438 75.566406 27.269531 C 75.566406 27.640625 75.867188 27.941406 76.238281 27.941406 L 106.421875 27.941406 C 106.796875 27.941406 107.097656 27.640625 107.097656 27.269531 C 107.097656 26.898438 106.796875 26.597656 106.421875 26.597656 " fill-opacity="1" fill-rule="nonzero"/><path fill="#084bc1" d="M 106.421875 57.941406 L 76.238281 57.941406 C 75.867188 57.941406 75.566406 58.242188 75.566406 58.613281 C 75.566406 58.984375 75.867188 59.285156 76.238281 59.285156 L 106.421875 59.285156 C 106.796875 59.285156 107.097656 58.984375 107.097656 58.613281 C 107.097656 58.242188 106.796875 57.941406 106.421875 57.941406 " fill-opacity="1" fill-rule="nonzero"/><path fill="#084bc1" d="M 106.421875 34.429688 L 86.300781 34.429688 C 85.929688 34.429688 85.625 34.734375 85.625 35.105469 C 85.625 35.476562 85.929688 35.777344 86.300781 35.777344 L 106.421875 35.777344 C 106.796875 35.777344 107.097656 35.476562 107.097656 35.105469 C 107.097656 34.734375 106.796875 34.429688 106.421875 34.429688 " fill-opacity="1" fill-rule="nonzero"/><path fill="#084bc1" d="M 106.421875 42.265625 L 86.300781 42.265625 C 85.929688 42.265625 85.625 42.570312 85.625 42.941406 C 85.625 43.3125 85.929688 43.613281 86.300781 43.613281 L 106.421875 43.613281 C 106.796875 43.613281 107.097656 43.3125 107.097656 42.941406 C 107.097656 42.570312 106.796875 42.265625 106.421875 42.265625 " fill-opacity="1" fill-rule="nonzero"/><path fill="#084bc1" d="M 106.421875 50.101562 L 86.300781 50.101562 C 85.929688 50.101562 85.625 50.40625 85.625 50.777344 C 85.625 51.148438 85.929688 51.449219 86.300781 51.449219 L 106.421875 51.449219 C 106.796875 51.449219 107.097656 51.148438 107.097656 50.777344 C 107.097656 50.40625 106.796875 50.101562 106.421875 50.101562 " fill-opacity="1" fill-rule="nonzero"/><path fill="#084bc1" d="M 105.75 23.679688 L 76.910156 23.679688 L 76.910156 11.410156 L 105.75 11.410156 Z M 106.421875 10.0625 L 76.238281 10.0625 C 75.867188 10.0625 75.566406 10.363281 75.566406 10.738281 L 75.566406 24.351562 C 75.566406 24.722656 75.867188 25.023438 76.238281 25.023438 L 106.421875 25.023438 C 106.796875 25.023438 107.097656 24.722656 107.097656 24.351562 L 107.097656 10.738281 C 107.097656 10.363281 106.796875 10.0625 106.421875 10.0625 " fill-opacity="1" fill-rule="nonzero"/><g clip-path="url(#fb18fe9e20)"><path fill="#084bc1" d="M 89.800781 88.199219 L 83.890625 88.199219 C 80.300781 88.199219 77.207031 86.058594 75.796875 82.992188 L 72.757812 82.992188 C 74.3125 87.65625 78.710938 91.03125 83.890625 91.03125 L 88.386719 91.03125 L 88.386719 92.8125 L 44.832031 92.8125 L 44.832031 91.03125 L 49.328125 91.03125 C 54.507812 91.03125 58.910156 87.65625 60.464844 82.992188 L 57.421875 82.992188 C 56.015625 86.058594 52.921875 88.199219 49.328125 88.199219 L 43.417969 88.199219 C 42.636719 88.199219 42.003906 88.832031 42.003906 89.613281 L 42.003906 94.226562 C 42.003906 95.007812 42.636719 95.644531 43.417969 95.644531 L 89.800781 95.644531 C 90.582031 95.644531 91.21875 95.007812 91.21875 94.226562 L 91.21875 89.613281 C 91.21875 88.832031 90.582031 88.199219 89.800781 88.199219 " fill-opacity="1" fill-rule="nonzero"/></g><g fill="#084bc1" fill-opacity="1"><g transform="translate(10.84689, 119.602943)"><g><path d="M 7.828125 0.234375 C 5.835938 0.234375 4.289062 -0.3125 3.1875 -1.40625 C 2.082031 -2.507812 1.53125 -4.082031 1.53125 -6.125 L 1.53125 -13.90625 L 4.75 -13.90625 L 4.75 -6.234375 C 4.75 -3.742188 5.78125 -2.5 7.84375 -2.5 C 8.851562 -2.5 9.625 -2.800781 10.15625 -3.40625 C 10.6875 -4.007812 10.953125 -4.953125 10.953125 -6.234375 L 10.953125 -13.90625 L 14.125 -13.90625 L 14.125 -6.125 C 14.125 -4.082031 13.570312 -2.507812 12.46875 -1.40625 C 11.363281 -0.3125 9.816406 0.234375 7.828125 0.234375 Z M 7.828125 0.234375 "/></g></g></g><g fill="#084bc1" fill-opacity="1"><g transform="translate(26.908903, 119.602943)"><g><path d="M 7.9375 -10.859375 C 9.257812 -10.859375 10.328125 -10.457031 11.140625 -9.65625 C 11.953125 -8.863281 12.359375 -7.6875 12.359375 -6.125 L 12.359375 0 L 9.265625 0 L 9.265625 -5.640625 C 9.265625 -6.492188 9.078125 -7.128906 8.703125 -7.546875 C 8.335938 -7.960938 7.800781 -8.171875 7.09375 -8.171875 C 6.3125 -8.171875 5.6875 -7.925781 5.21875 -7.4375 C 4.757812 -6.957031 4.53125 -6.238281 4.53125 -5.28125 L 4.53125 0 L 1.4375 0 L 1.4375 -10.6875 L 4.390625 -10.6875 L 4.390625 -9.4375 C 4.804688 -9.882812 5.316406 -10.234375 5.921875 -10.484375 C 6.535156 -10.734375 7.207031 -10.859375 7.9375 -10.859375 Z M 7.9375 -10.859375 "/></g></g></g><g fill="#084bc1" fill-opacity="1"><g transform="translate(41.042699, 119.602943)"><g><path d="M 1.4375 -10.6875 L 4.53125 -10.6875 L 4.53125 0 L 1.4375 0 Z M 2.96875 -12.1875 C 2.40625 -12.1875 1.941406 -12.347656 1.578125 -12.671875 C 1.222656 -13.003906 1.046875 -13.414062 1.046875 -13.90625 C 1.046875 -14.394531 1.222656 -14.804688 1.578125 -15.140625 C 1.941406 -15.472656 2.40625 -15.640625 2.96875 -15.640625 C 3.539062 -15.640625 4.003906 -15.476562 4.359375 -15.15625 C 4.722656 -14.84375 4.90625 -14.445312 4.90625 -13.96875 C 4.90625 -13.457031 4.722656 -13.03125 4.359375 -12.6875 C 4.003906 -12.351562 3.539062 -12.1875 2.96875 -12.1875 Z M 2.96875 -12.1875 "/></g></g></g><g fill="#084bc1" fill-opacity="1"><g transform="translate(47.423867, 119.602943)"><g><path d="M 8.3125 0.234375 C 6.894531 0.234375 5.613281 -0.0703125 4.46875 -0.6875 C 3.320312 -1.300781 2.421875 -2.15625 1.765625 -3.25 C 1.109375 -4.34375 0.78125 -5.578125 0.78125 -6.953125 C 0.78125 -8.328125 1.109375 -9.5625 1.765625 -10.65625 C 2.421875 -11.75 3.320312 -12.601562 4.46875 -13.21875 C 5.613281 -13.84375 6.898438 -14.15625 8.328125 -14.15625 C 9.535156 -14.15625 10.625 -13.941406 11.59375 -13.515625 C 12.570312 -13.085938 13.390625 -12.476562 14.046875 -11.6875 L 11.984375 -9.78125 C 11.046875 -10.863281 9.878906 -11.40625 8.484375 -11.40625 C 7.617188 -11.40625 6.847656 -11.21875 6.171875 -10.84375 C 5.503906 -10.46875 4.976562 -9.941406 4.59375 -9.265625 C 4.21875 -8.585938 4.03125 -7.816406 4.03125 -6.953125 C 4.03125 -6.097656 4.21875 -5.332031 4.59375 -4.65625 C 4.976562 -3.976562 5.503906 -3.445312 6.171875 -3.0625 C 6.847656 -2.6875 7.617188 -2.5 8.484375 -2.5 C 9.878906 -2.5 11.046875 -3.050781 11.984375 -4.15625 L 14.046875 -2.25 C 13.390625 -1.4375 12.566406 -0.816406 11.578125 -0.390625 C 10.597656 0.0234375 9.507812 0.234375 8.3125 0.234375 Z M 8.3125 0.234375 "/></g></g></g><g fill="#084bc1" fill-opacity="1"><g transform="translate(62.392558, 119.602943)"><g><path d="M 6.515625 0.15625 C 5.390625 0.15625 4.378906 -0.078125 3.484375 -0.546875 C 2.585938 -1.015625 1.890625 -1.664062 1.390625 -2.5 C 0.890625 -3.332031 0.640625 -4.28125 0.640625 -5.34375 C 0.640625 -6.40625 0.890625 -7.351562 1.390625 -8.1875 C 1.890625 -9.019531 2.585938 -9.671875 3.484375 -10.140625 C 4.378906 -10.617188 5.390625 -10.859375 6.515625 -10.859375 C 7.640625 -10.859375 8.644531 -10.617188 9.53125 -10.140625 C 10.425781 -9.671875 11.125 -9.019531 11.625 -8.1875 C 12.125 -7.351562 12.375 -6.40625 12.375 -5.34375 C 12.375 -4.28125 12.125 -3.332031 11.625 -2.5 C 11.125 -1.664062 10.425781 -1.015625 9.53125 -0.546875 C 8.644531 -0.078125 7.640625 0.15625 6.515625 0.15625 Z M 6.515625 -2.390625 C 7.316406 -2.390625 7.96875 -2.65625 8.46875 -3.1875 C 8.976562 -3.726562 9.234375 -4.445312 9.234375 -5.34375 C 9.234375 -6.25 8.976562 -6.96875 8.46875 -7.5 C 7.96875 -8.039062 7.316406 -8.3125 6.515625 -8.3125 C 5.722656 -8.3125 5.066406 -8.039062 4.546875 -7.5 C 4.035156 -6.96875 3.78125 -6.25 3.78125 -5.34375 C 3.78125 -4.445312 4.035156 -3.726562 4.546875 -3.1875 C 5.066406 -2.65625 5.722656 -2.390625 6.515625 -2.390625 Z M 6.515625 -2.390625 "/></g></g></g><g fill="#084bc1" fill-opacity="1"><g transform="translate(75.810727, 119.602943)"><g><path d="M 12.203125 -10.6875 L 12.203125 0 L 9.265625 0 L 9.265625 -1.265625 C 8.847656 -0.804688 8.351562 -0.453125 7.78125 -0.203125 C 7.21875 0.0351562 6.601562 0.15625 5.9375 0.15625 C 4.53125 0.15625 3.414062 -0.242188 2.59375 -1.046875 C 1.78125 -1.859375 1.375 -3.0625 1.375 -4.65625 L 1.375 -10.6875 L 4.46875 -10.6875 L 4.46875 -5.109375 C 4.46875 -3.390625 5.191406 -2.53125 6.640625 -2.53125 C 7.378906 -2.53125 7.972656 -2.769531 8.421875 -3.25 C 8.878906 -3.726562 9.109375 -4.445312 9.109375 -5.40625 L 9.109375 -10.6875 Z M 12.203125 -10.6875 "/></g></g></g><g fill="#084bc1" fill-opacity="1"><g transform="translate(89.865007, 119.602943)"><g><path d="M 4.390625 -9.28125 C 4.765625 -9.800781 5.265625 -10.191406 5.890625 -10.453125 C 6.523438 -10.722656 7.25 -10.859375 8.0625 -10.859375 L 8.0625 -7.984375 C 7.71875 -8.015625 7.488281 -8.03125 7.375 -8.03125 C 6.488281 -8.03125 5.789062 -7.78125 5.28125 -7.28125 C 4.78125 -6.78125 4.53125 -6.035156 4.53125 -5.046875 L 4.53125 0 L 1.4375 0 L 1.4375 -10.6875 L 4.390625 -10.6875 Z M 4.390625 -9.28125 "/></g></g></g><g fill="#084bc1" fill-opacity="1"><g transform="translate(98.830387, 119.602943)"><g><path d="M 5.03125 0.15625 C 4.144531 0.15625 3.273438 0.046875 2.421875 -0.171875 C 1.578125 -0.390625 0.898438 -0.664062 0.390625 -1 L 1.4375 -3.21875 C 1.90625 -2.914062 2.476562 -2.664062 3.15625 -2.46875 C 3.832031 -2.28125 4.492188 -2.1875 5.140625 -2.1875 C 6.453125 -2.1875 7.109375 -2.507812 7.109375 -3.15625 C 7.109375 -3.46875 6.929688 -3.6875 6.578125 -3.8125 C 6.222656 -3.945312 5.671875 -4.0625 4.921875 -4.15625 C 4.054688 -4.289062 3.335938 -4.441406 2.765625 -4.609375 C 2.191406 -4.785156 1.695312 -5.09375 1.28125 -5.53125 C 0.863281 -5.96875 0.65625 -6.585938 0.65625 -7.390625 C 0.65625 -8.066406 0.847656 -8.664062 1.234375 -9.1875 C 1.628906 -9.71875 2.203125 -10.128906 2.953125 -10.421875 C 3.703125 -10.710938 4.585938 -10.859375 5.609375 -10.859375 C 6.359375 -10.859375 7.109375 -10.773438 7.859375 -10.609375 C 8.609375 -10.441406 9.226562 -10.210938 9.71875 -9.921875 L 8.6875 -7.71875 C 7.75 -8.238281 6.722656 -8.5 5.609375 -8.5 C 4.941406 -8.5 4.441406 -8.40625 4.109375 -8.21875 C 3.785156 -8.039062 3.625 -7.804688 3.625 -7.515625 C 3.625 -7.179688 3.800781 -6.945312 4.15625 -6.8125 C 4.507812 -6.6875 5.078125 -6.5625 5.859375 -6.4375 C 6.734375 -6.289062 7.445312 -6.132812 8 -5.96875 C 8.5625 -5.800781 9.046875 -5.5 9.453125 -5.0625 C 9.867188 -4.625 10.078125 -4.015625 10.078125 -3.234375 C 10.078125 -2.578125 9.878906 -1.988281 9.484375 -1.46875 C 9.085938 -0.957031 8.503906 -0.554688 7.734375 -0.265625 C 6.972656 0.015625 6.070312 0.15625 5.03125 0.15625 Z M 5.03125 0.15625 "/></g></g></g><g fill="#084bc1" fill-opacity="1"><g transform="translate(109.783616, 119.602943)"><g><path d="M 11.90625 -5.3125 C 11.90625 -5.269531 11.882812 -4.988281 11.84375 -4.46875 L 3.75 -4.46875 C 3.894531 -3.8125 4.238281 -3.289062 4.78125 -2.90625 C 5.332031 -2.519531 6.007812 -2.328125 6.8125 -2.328125 C 7.375 -2.328125 7.867188 -2.410156 8.296875 -2.578125 C 8.722656 -2.742188 9.125 -3.003906 9.5 -3.359375 L 11.15625 -1.5625 C 10.144531 -0.414062 8.671875 0.15625 6.734375 0.15625 C 5.523438 0.15625 4.457031 -0.078125 3.53125 -0.546875 C 2.601562 -1.015625 1.890625 -1.664062 1.390625 -2.5 C 0.890625 -3.332031 0.640625 -4.28125 0.640625 -5.34375 C 0.640625 -6.394531 0.882812 -7.335938 1.375 -8.171875 C 1.875 -9.015625 2.554688 -9.671875 3.421875 -10.140625 C 4.296875 -10.617188 5.269531 -10.859375 6.34375 -10.859375 C 7.382812 -10.859375 8.328125 -10.628906 9.171875 -10.171875 C 10.023438 -9.722656 10.691406 -9.078125 11.171875 -8.234375 C 11.660156 -7.390625 11.90625 -6.414062 11.90625 -5.3125 Z M 6.359375 -8.5 C 5.660156 -8.5 5.070312 -8.300781 4.59375 -7.90625 C 4.113281 -7.507812 3.820312 -6.96875 3.71875 -6.28125 L 8.984375 -6.28125 C 8.878906 -6.957031 8.585938 -7.492188 8.109375 -7.890625 C 7.628906 -8.296875 7.046875 -8.5 6.359375 -8.5 Z M 6.359375 -8.5 "/></g></g></g></svg>