<svg xmlns="http://www.w3.org/2000/svg" xmlns:xlink="http://www.w3.org/1999/xlink" width="392" zoomAndPan="magnify" viewBox="0 0 294 72.749999" height="97" preserveAspectRatio="xMidYMid meet" version="1.0"><defs><g/><clipPath id="fdd1c71219"><path d="M 0.503906 4 L 84.214844 4 L 84.214844 61 L 0.503906 61 Z M 0.503906 4 " clip-rule="nonzero"/></clipPath><clipPath id="64e90e9ab8"><path d="M 23 62 L 62 62 L 62 72.5 L 23 72.5 Z M 23 62 " clip-rule="nonzero"/></clipPath></defs><path fill="#e20000" d="M 40.507812 54.96875 C 40.507812 56.019531 41.359375 56.871094 42.410156 56.871094 C 43.460938 56.871094 44.316406 56.019531 44.316406 54.96875 C 44.316406 53.917969 43.460938 53.066406 42.410156 53.066406 C 41.359375 53.066406 40.507812 53.917969 40.507812 54.96875 " fill-opacity="1" fill-rule="nonzero"/><path fill="#e20000" d="M 8.292969 2.046875 L 33.972656 2.046875 C 38.0625 2.046875 41.390625 5.375 41.390625 9.464844 L 41.390625 48.460938 L 8.292969 48.460938 Z M 43.429688 9.464844 C 43.429688 5.375 46.757812 2.046875 50.847656 2.046875 L 76.53125 2.046875 L 76.53125 48.460938 L 43.429688 48.460938 Z M 7.273438 50.5 L 77.550781 50.5 C 78.113281 50.5 78.566406 50.042969 78.566406 49.480469 L 78.566406 1.027344 C 78.566406 0.46875 78.113281 0.0078125 77.550781 0.0078125 L 50.847656 0.0078125 C 47.160156 0.0078125 43.96875 2.132812 42.410156 5.21875 C 40.851562 2.132812 37.660156 0.0078125 33.972656 0.0078125 L 7.273438 0.0078125 C 6.710938 0.0078125 6.253906 0.46875 6.253906 1.027344 L 6.253906 49.480469 C 6.253906 50.042969 6.710938 50.5 7.273438 50.5 " fill-opacity="1" fill-rule="nonzero"/><g clip-path="url(#fdd1c71219)"><path fill="#e20000" d="M 83.125 4.792969 L 80.410156 4.792969 L 80.410156 6.9375 L 82.054688 6.9375 L 82.054688 58.339844 L 2.765625 58.339844 L 2.765625 6.9375 L 4.414062 6.9375 L 4.414062 4.792969 L 1.695312 4.792969 C 1.105469 4.792969 0.625 5.273438 0.625 5.867188 L 0.625 59.410156 C 0.625 60.003906 1.105469 60.484375 1.695312 60.484375 L 83.125 60.484375 C 83.714844 60.484375 84.195312 60.003906 84.195312 59.410156 L 84.195312 5.867188 C 84.195312 5.273438 83.714844 4.792969 83.125 4.792969 " fill-opacity="1" fill-rule="nonzero"/></g><path fill="#e20000" d="M 35.125 8.265625 L 12.28125 8.265625 C 12 8.265625 11.769531 8.496094 11.769531 8.777344 C 11.769531 9.058594 12 9.285156 12.28125 9.285156 L 35.125 9.285156 C 35.40625 9.285156 35.632812 9.058594 35.632812 8.777344 C 35.632812 8.496094 35.40625 8.265625 35.125 8.265625 " fill-opacity="1" fill-rule="nonzero"/><path fill="#e20000" d="M 35.125 14.195312 L 12.28125 14.195312 C 12 14.195312 11.769531 14.425781 11.769531 14.707031 C 11.769531 14.988281 12 15.214844 12.28125 15.214844 L 35.125 15.214844 C 35.40625 15.214844 35.632812 14.988281 35.632812 14.707031 C 35.632812 14.425781 35.40625 14.195312 35.125 14.195312 " fill-opacity="1" fill-rule="nonzero"/><path fill="#e20000" d="M 35.125 20.128906 L 12.28125 20.128906 C 12 20.128906 11.769531 20.355469 11.769531 20.636719 C 11.769531 20.917969 12 21.148438 12.28125 21.148438 L 35.125 21.148438 C 35.40625 21.148438 35.632812 20.917969 35.632812 20.636719 C 35.632812 20.355469 35.40625 20.128906 35.125 20.128906 " fill-opacity="1" fill-rule="nonzero"/><path fill="#e20000" d="M 35.125 43.851562 L 12.28125 43.851562 C 12 43.851562 11.769531 44.078125 11.769531 44.359375 C 11.769531 44.640625 12 44.867188 12.28125 44.867188 L 35.125 44.867188 C 35.40625 44.867188 35.632812 44.640625 35.632812 44.359375 C 35.632812 44.078125 35.40625 43.851562 35.125 43.851562 " fill-opacity="1" fill-rule="nonzero"/><path fill="#e20000" d="M 12.28125 27.078125 L 27.507812 27.078125 C 27.789062 27.078125 28.019531 26.847656 28.019531 26.566406 C 28.019531 26.285156 27.789062 26.058594 27.507812 26.058594 L 12.28125 26.058594 C 12 26.058594 11.769531 26.285156 11.769531 26.566406 C 11.769531 26.847656 12 27.078125 12.28125 27.078125 " fill-opacity="1" fill-rule="nonzero"/><path fill="#e20000" d="M 12.28125 33.007812 L 27.507812 33.007812 C 27.789062 33.007812 28.019531 32.777344 28.019531 32.496094 C 28.019531 32.214844 27.789062 31.988281 27.507812 31.988281 L 12.28125 31.988281 C 12 31.988281 11.769531 32.214844 11.769531 32.496094 C 11.769531 32.777344 12 33.007812 12.28125 33.007812 " fill-opacity="1" fill-rule="nonzero"/><path fill="#e20000" d="M 12.28125 38.9375 L 27.507812 38.9375 C 27.789062 38.9375 28.019531 38.710938 28.019531 38.429688 C 28.019531 38.144531 27.789062 37.917969 27.507812 37.917969 L 12.28125 37.917969 C 12 37.917969 11.769531 38.144531 11.769531 38.429688 C 11.769531 38.710938 12 38.9375 12.28125 38.9375 " fill-opacity="1" fill-rule="nonzero"/><path fill="#e20000" d="M 72.539062 20.128906 L 49.695312 20.128906 C 49.414062 20.128906 49.1875 20.355469 49.1875 20.636719 C 49.1875 20.917969 49.414062 21.148438 49.695312 21.148438 L 72.539062 21.148438 C 72.824219 21.148438 73.050781 20.917969 73.050781 20.636719 C 73.050781 20.355469 72.824219 20.128906 72.539062 20.128906 " fill-opacity="1" fill-rule="nonzero"/><path fill="#e20000" d="M 72.539062 43.851562 L 49.695312 43.851562 C 49.414062 43.851562 49.1875 44.078125 49.1875 44.359375 C 49.1875 44.640625 49.414062 44.867188 49.695312 44.867188 L 72.539062 44.867188 C 72.824219 44.867188 73.050781 44.640625 73.050781 44.359375 C 73.050781 44.078125 72.824219 43.851562 72.539062 43.851562 " fill-opacity="1" fill-rule="nonzero"/><path fill="#e20000" d="M 72.539062 26.058594 L 57.3125 26.058594 C 57.03125 26.058594 56.800781 26.285156 56.800781 26.566406 C 56.800781 26.847656 57.03125 27.078125 57.3125 27.078125 L 72.539062 27.078125 C 72.824219 27.078125 73.050781 26.847656 73.050781 26.566406 C 73.050781 26.285156 72.824219 26.058594 72.539062 26.058594 " fill-opacity="1" fill-rule="nonzero"/><path fill="#e20000" d="M 72.539062 31.988281 L 57.3125 31.988281 C 57.03125 31.988281 56.800781 32.214844 56.800781 32.496094 C 56.800781 32.777344 57.03125 33.007812 57.3125 33.007812 L 72.539062 33.007812 C 72.824219 33.007812 73.050781 32.777344 73.050781 32.496094 C 73.050781 32.214844 72.824219 31.988281 72.539062 31.988281 " fill-opacity="1" fill-rule="nonzero"/><path fill="#e20000" d="M 72.539062 37.917969 L 57.3125 37.917969 C 57.03125 37.917969 56.800781 38.144531 56.800781 38.429688 C 56.800781 38.710938 57.03125 38.9375 57.3125 38.9375 L 72.539062 38.9375 C 72.824219 38.9375 73.050781 38.710938 73.050781 38.429688 C 73.050781 38.144531 72.824219 37.917969 72.539062 37.917969 " fill-opacity="1" fill-rule="nonzero"/><path fill="#e20000" d="M 72.03125 17.917969 L 50.207031 17.917969 L 50.207031 8.632812 L 72.03125 8.632812 Z M 72.539062 7.613281 L 49.695312 7.613281 C 49.414062 7.613281 49.1875 7.84375 49.1875 8.125 L 49.1875 18.429688 C 49.1875 18.710938 49.414062 18.9375 49.695312 18.9375 L 72.539062 18.9375 C 72.824219 18.9375 73.050781 18.710938 73.050781 18.429688 L 73.050781 8.125 C 73.050781 7.84375 72.824219 7.613281 72.539062 7.613281 " fill-opacity="1" fill-rule="nonzero"/><g clip-path="url(#64e90e9ab8)"><path fill="#e20000" d="M 59.960938 66.75 L 55.488281 66.75 C 52.773438 66.75 50.429688 65.128906 49.363281 62.808594 L 47.0625 62.808594 C 48.238281 66.335938 51.570312 68.890625 55.488281 68.890625 L 58.890625 68.890625 L 58.890625 70.242188 L 25.929688 70.242188 L 25.929688 68.890625 L 29.332031 68.890625 C 33.253906 68.890625 36.582031 66.335938 37.757812 62.808594 L 35.457031 62.808594 C 34.390625 65.128906 32.050781 66.75 29.332031 66.75 L 24.859375 66.75 C 24.269531 66.75 23.789062 67.230469 23.789062 67.820312 L 23.789062 71.3125 C 23.789062 71.902344 24.269531 72.382812 24.859375 72.382812 L 59.960938 72.382812 C 60.554688 72.382812 61.03125 71.902344 61.03125 71.3125 L 61.03125 67.820312 C 61.03125 67.230469 60.554688 66.75 59.960938 66.75 " fill-opacity="1" fill-rule="nonzero"/></g><g fill="#e20000" fill-opacity="1"><g transform="translate(101.230926, 47.028953)"><g><path d="M 12.5625 0.375 C 9.375 0.375 6.890625 -0.503906 5.109375 -2.265625 C 3.335938 -4.023438 2.453125 -6.546875 2.453125 -9.828125 L 2.453125 -22.328125 L 7.625 -22.328125 L 7.625 -10.015625 C 7.625 -6.015625 9.28125 -4.015625 12.59375 -4.015625 C 14.207031 -4.015625 15.441406 -4.5 16.296875 -5.46875 C 17.148438 -6.4375 17.578125 -7.953125 17.578125 -10.015625 L 17.578125 -22.328125 L 22.671875 -22.328125 L 22.671875 -9.828125 C 22.671875 -6.546875 21.78125 -4.023438 20 -2.265625 C 18.226562 -0.503906 15.75 0.375 12.5625 0.375 Z M 12.5625 0.375 "/></g></g></g><g fill="#e20000" fill-opacity="1"><g transform="translate(126.992201, 47.028953)"><g><path d="M 12.71875 -17.40625 C 14.84375 -17.40625 16.5625 -16.765625 17.875 -15.484375 C 19.1875 -14.210938 19.84375 -12.328125 19.84375 -9.828125 L 19.84375 0 L 14.859375 0 L 14.859375 -9.0625 C 14.859375 -10.414062 14.5625 -11.425781 13.96875 -12.09375 C 13.375 -12.769531 12.515625 -13.109375 11.390625 -13.109375 C 10.128906 -13.109375 9.125 -12.71875 8.375 -11.9375 C 7.632812 -11.164062 7.265625 -10.015625 7.265625 -8.484375 L 7.265625 0 L 2.296875 0 L 2.296875 -17.15625 L 7.046875 -17.15625 L 7.046875 -15.140625 C 7.703125 -15.867188 8.519531 -16.425781 9.5 -16.8125 C 10.476562 -17.207031 11.550781 -17.40625 12.71875 -17.40625 Z M 12.71875 -17.40625 "/></g></g></g><g fill="#e20000" fill-opacity="1"><g transform="translate(149.660866, 47.028953)"><g><path d="M 2.296875 -17.15625 L 7.265625 -17.15625 L 7.265625 0 L 2.296875 0 Z M 4.78125 -19.546875 C 3.863281 -19.546875 3.117188 -19.8125 2.546875 -20.34375 C 1.972656 -20.875 1.6875 -21.535156 1.6875 -22.328125 C 1.6875 -23.109375 1.972656 -23.765625 2.546875 -24.296875 C 3.117188 -24.828125 3.863281 -25.09375 4.78125 -25.09375 C 5.6875 -25.09375 6.425781 -24.835938 7 -24.328125 C 7.582031 -23.816406 7.875 -23.179688 7.875 -22.421875 C 7.875 -21.585938 7.582031 -20.898438 7 -20.359375 C 6.425781 -19.816406 5.6875 -19.546875 4.78125 -19.546875 Z M 4.78125 -19.546875 "/></g></g></g><g fill="#e20000" fill-opacity="1"><g transform="translate(159.895332, 47.028953)"><g><path d="M 13.328125 0.375 C 11.054688 0.375 9 -0.113281 7.15625 -1.09375 C 5.320312 -2.082031 3.878906 -3.453125 2.828125 -5.203125 C 1.773438 -6.960938 1.25 -8.945312 1.25 -11.15625 C 1.25 -13.375 1.773438 -15.359375 2.828125 -17.109375 C 3.878906 -18.859375 5.320312 -20.226562 7.15625 -21.21875 C 9 -22.207031 11.066406 -22.703125 13.359375 -22.703125 C 15.296875 -22.703125 17.046875 -22.363281 18.609375 -21.6875 C 20.171875 -21.007812 21.484375 -20.03125 22.546875 -18.75 L 19.234375 -15.6875 C 17.722656 -17.4375 15.851562 -18.3125 13.625 -18.3125 C 12.238281 -18.3125 11.003906 -18.003906 9.921875 -17.390625 C 8.835938 -16.785156 7.988281 -15.941406 7.375 -14.859375 C 6.769531 -13.773438 6.46875 -12.539062 6.46875 -11.15625 C 6.46875 -9.78125 6.769531 -8.550781 7.375 -7.46875 C 7.988281 -6.382812 8.835938 -5.535156 9.921875 -4.921875 C 11.003906 -4.316406 12.238281 -4.015625 13.625 -4.015625 C 15.851562 -4.015625 17.722656 -4.898438 19.234375 -6.671875 L 22.546875 -3.609375 C 21.484375 -2.304688 20.164062 -1.316406 18.59375 -0.640625 C 17.019531 0.0351562 15.265625 0.375 13.328125 0.375 Z M 13.328125 0.375 "/></g></g></g><g fill="#e20000" fill-opacity="1"><g transform="translate(183.903067, 47.028953)"><g><path d="M 10.453125 0.25 C 8.648438 0.25 7.03125 -0.125 5.59375 -0.875 C 4.15625 -1.632812 3.03125 -2.679688 2.21875 -4.015625 C 1.414062 -5.359375 1.015625 -6.878906 1.015625 -8.578125 C 1.015625 -10.273438 1.414062 -11.789062 2.21875 -13.125 C 3.03125 -14.46875 4.15625 -15.515625 5.59375 -16.265625 C 7.03125 -17.023438 8.648438 -17.40625 10.453125 -17.40625 C 12.265625 -17.40625 13.878906 -17.023438 15.296875 -16.265625 C 16.722656 -15.515625 17.84375 -14.46875 18.65625 -13.125 C 19.46875 -11.789062 19.875 -10.273438 19.875 -8.578125 C 19.875 -6.878906 19.46875 -5.359375 18.65625 -4.015625 C 17.84375 -2.679688 16.722656 -1.632812 15.296875 -0.875 C 13.878906 -0.125 12.265625 0.25 10.453125 0.25 Z M 10.453125 -3.828125 C 11.734375 -3.828125 12.78125 -4.253906 13.59375 -5.109375 C 14.414062 -5.972656 14.828125 -7.128906 14.828125 -8.578125 C 14.828125 -10.023438 14.414062 -11.175781 13.59375 -12.03125 C 12.78125 -12.894531 11.734375 -13.328125 10.453125 -13.328125 C 9.179688 -13.328125 8.128906 -12.894531 7.296875 -12.03125 C 6.472656 -11.175781 6.0625 -10.023438 6.0625 -8.578125 C 6.0625 -7.128906 6.472656 -5.972656 7.296875 -5.109375 C 8.128906 -4.253906 9.179688 -3.828125 10.453125 -3.828125 Z M 10.453125 -3.828125 "/></g></g></g><g fill="#e20000" fill-opacity="1"><g transform="translate(205.423964, 47.028953)"><g><path d="M 19.578125 -17.15625 L 19.578125 0 L 14.859375 0 L 14.859375 -2.046875 C 14.203125 -1.296875 13.414062 -0.722656 12.5 -0.328125 C 11.582031 0.0546875 10.59375 0.25 9.53125 0.25 C 7.28125 0.25 5.492188 -0.394531 4.171875 -1.6875 C 2.859375 -2.988281 2.203125 -4.914062 2.203125 -7.46875 L 2.203125 -17.15625 L 7.171875 -17.15625 L 7.171875 -8.203125 C 7.171875 -5.429688 8.332031 -4.046875 10.65625 -4.046875 C 11.84375 -4.046875 12.796875 -4.429688 13.515625 -5.203125 C 14.242188 -5.984375 14.609375 -7.140625 14.609375 -8.671875 L 14.609375 -17.15625 Z M 19.578125 -17.15625 "/></g></g></g><g fill="#e20000" fill-opacity="1"><g transform="translate(227.965097, 47.028953)"><g><path d="M 7.046875 -14.890625 C 7.640625 -15.722656 8.441406 -16.347656 9.453125 -16.765625 C 10.460938 -17.191406 11.628906 -17.40625 12.953125 -17.40625 L 12.953125 -12.8125 C 12.398438 -12.863281 12.023438 -12.890625 11.828125 -12.890625 C 10.398438 -12.890625 9.28125 -12.488281 8.46875 -11.6875 C 7.664062 -10.882812 7.265625 -9.6875 7.265625 -8.09375 L 7.265625 0 L 2.296875 0 L 2.296875 -17.15625 L 7.046875 -17.15625 Z M 7.046875 -14.890625 "/></g></g></g><g fill="#e20000" fill-opacity="1"><g transform="translate(242.344291, 47.028953)"><g><path d="M 8.0625 0.25 C 6.644531 0.25 5.253906 0.078125 3.890625 -0.265625 C 2.523438 -0.617188 1.441406 -1.0625 0.640625 -1.59375 L 2.296875 -5.171875 C 3.054688 -4.679688 3.976562 -4.28125 5.0625 -3.96875 C 6.15625 -3.664062 7.222656 -3.515625 8.265625 -3.515625 C 10.367188 -3.515625 11.421875 -4.035156 11.421875 -5.078125 C 11.421875 -5.554688 11.128906 -5.898438 10.546875 -6.109375 C 9.972656 -6.328125 9.09375 -6.515625 7.90625 -6.671875 C 6.5 -6.878906 5.335938 -7.117188 4.421875 -7.390625 C 3.515625 -7.671875 2.722656 -8.160156 2.046875 -8.859375 C 1.378906 -9.566406 1.046875 -10.566406 1.046875 -11.859375 C 1.046875 -12.941406 1.359375 -13.90625 1.984375 -14.75 C 2.617188 -15.59375 3.535156 -16.242188 4.734375 -16.703125 C 5.929688 -17.171875 7.351562 -17.40625 9 -17.40625 C 10.207031 -17.40625 11.410156 -17.269531 12.609375 -17 C 13.816406 -16.738281 14.8125 -16.375 15.59375 -15.90625 L 13.9375 -12.375 C 12.425781 -13.226562 10.78125 -13.65625 9 -13.65625 C 7.9375 -13.65625 7.132812 -13.503906 6.59375 -13.203125 C 6.0625 -12.898438 5.796875 -12.515625 5.796875 -12.046875 C 5.796875 -11.515625 6.082031 -11.144531 6.65625 -10.9375 C 7.238281 -10.726562 8.15625 -10.523438 9.40625 -10.328125 C 10.8125 -10.097656 11.957031 -9.847656 12.84375 -9.578125 C 13.738281 -9.316406 14.515625 -8.832031 15.171875 -8.125 C 15.835938 -7.425781 16.171875 -6.453125 16.171875 -5.203125 C 16.171875 -4.140625 15.847656 -3.191406 15.203125 -2.359375 C 14.566406 -1.523438 13.640625 -0.878906 12.421875 -0.421875 C 11.203125 0.0234375 9.75 0.25 8.0625 0.25 Z M 8.0625 0.25 "/></g></g></g><g fill="#e20000" fill-opacity="1"><g transform="translate(259.911748, 47.028953)"><g><path d="M 19.109375 -8.515625 C 19.109375 -8.453125 19.070312 -8.003906 19 -7.171875 L 6.03125 -7.171875 C 6.257812 -6.109375 6.8125 -5.269531 7.6875 -4.65625 C 8.5625 -4.039062 9.644531 -3.734375 10.9375 -3.734375 C 11.832031 -3.734375 12.625 -3.863281 13.3125 -4.125 C 14 -4.394531 14.644531 -4.816406 15.25 -5.390625 L 17.890625 -2.515625 C 16.273438 -0.671875 13.914062 0.25 10.8125 0.25 C 8.875 0.25 7.160156 -0.125 5.671875 -0.875 C 4.179688 -1.632812 3.03125 -2.679688 2.21875 -4.015625 C 1.414062 -5.359375 1.015625 -6.878906 1.015625 -8.578125 C 1.015625 -10.253906 1.410156 -11.765625 2.203125 -13.109375 C 3.003906 -14.460938 4.101562 -15.515625 5.5 -16.265625 C 6.894531 -17.023438 8.453125 -17.40625 10.171875 -17.40625 C 11.847656 -17.40625 13.367188 -17.046875 14.734375 -16.328125 C 16.097656 -15.609375 17.164062 -14.570312 17.9375 -13.21875 C 18.71875 -11.863281 19.109375 -10.296875 19.109375 -8.515625 Z M 10.203125 -13.65625 C 9.078125 -13.65625 8.128906 -13.332031 7.359375 -12.6875 C 6.597656 -12.050781 6.132812 -11.179688 5.96875 -10.078125 L 14.421875 -10.078125 C 14.242188 -11.160156 13.769531 -12.023438 13 -12.671875 C 12.238281 -13.328125 11.304688 -13.65625 10.203125 -13.65625 Z M 10.203125 -13.65625 "/></g></g></g></svg>